<?xml version="1.0" encoding="utf-8"?>
<!-- Generator: Adobe Illustrator 18.1.1, SVG Export Plug-In . SVG Version: 6.00 Build 0)  -->
<svg version="1.1" baseProfile="tiny" id="Layer_1" xmlns="http://www.w3.org/2000/svg" xmlns:xlink="http://www.w3.org/1999/xlink"
	 x="0px" y="0px" viewBox="0 0 2560 544.6" xml:space="preserve">
<rect x="-11" y="0" fill-rule="evenodd" fill="#A0BC53" width="2580.3" height="543.3"/>
<linearGradient id="SVGID_1_" gradientUnits="userSpaceOnUse" x1="-4.5263" y1="401.6689" x2="2569.3032" y2="401.6689">
	<stop  offset="0" style="stop-color:#5A4084"/>
	<stop  offset="1" style="stop-color:#3E265E"/>
</linearGradient>
<path fill-rule="evenodd" fill="url(#SVGID_1_)" d="M2569.3,281.6v261.7H-4.5c0-26.2,0-52.3,0-78.5
	C853.4,641.8,1618.3,153.8,2569.3,281.6z"/>
<path fill-rule="evenodd" fill="#729437" d="M1265.2,223.8c35.7-33.5,77.6-56.7,121.8-69.4c-6.2-13.2-11.6-27.1-15.9-41.5
	c-4.9,1.1-9.9-1.8-11.2-6.7c-1.3-5,1.6-10.2,6.7-11.5c5-1.3,10.2,1.6,11.5,6.7c1.3,4.8-1.4,9.8-6.1,11.4c4.3,14.4,9.7,28.3,16,41.5
	c58.4-16.6,120.8-15.2,178.5,4.3c-0.3,0.3-0.6,0.5-0.7,0.8c-57.3-19.3-119.3-20.7-177.3-4.2c11.3,23.8,25.6,45.5,42.2,65
	c-0.2,0-0.4,0-0.6,0c-0.2,0-0.3,0.1-0.5,0.1c-16.5-19.4-30.7-41.2-42-64.9c-44.2,12.7-86,35.8-121.6,69.2c3.2,3.7,3.1,9.3-0.4,12.9
	c-3.7,3.7-9.6,3.7-13.3,0c-3.7-3.7-3.7-9.6,0-13.3C1255.7,220.4,1261.5,220.3,1265.2,223.8L1265.2,223.8z"/>
<path fill-rule="evenodd" fill="#729437" d="M733.8,285.6c-53.7,50.5-124.6,72.2-193.2,65.1c-7.9,26.7-12.8,54.3-14.5,82.2
	c16.9,19,35.7,36.1,55.9,51.1c-0.4,0.1-0.9,0.2-1.4,0.4c-19.8-14.7-38.1-31.4-54.7-49.9c-1.1,18.6-0.7,37.4,1.1,56.1
	c-0.4,0.2-0.8,0.4-1.1,0.7c-1.9-19.4-2.3-38.8-1.1-58c-27.1-30.6-49.5-66.1-65.4-105.5c-24.2-11.6-46.8-27.5-66.8-47.5
	c-1.7-1.7-3.4-3.4-5-5.2v-1.1c1.8,1.9,3.7,3.9,5.6,5.8c19.8,19.8,42.1,35.4,65.8,47c-4-10-7.6-20.4-10.8-30.9
	c-6,1.4-12.2-2.2-13.8-8.3c-1.7-6.2,2-12.5,8.2-14.2c6.2-1.7,12.5,2,14.2,8.2c1.6,5.9-1.7,12-7.4,13.9c3.3,10.9,7.1,21.6,11.3,32
	c25.1,12,51.9,19.5,79,22.4c24.9-83.5,79.2-158.3,158.5-207.5c-2.9-5.5-1-12.3,4.4-15.5c5.5-3.2,12.6-1.3,15.8,4.2
	c3.2,5.5,1.3,12.6-4.2,15.8c-5.3,3.1-12,1.4-15.4-3.6c-79,48.9-133.2,123.4-158,206.6c68.2,7,138.9-14.6,192.4-64.9
	c-2.6-3-2.5-7.6,0.4-10.5c3-3,7.9-3,10.9,0c3,3,3,7.9,0,10.9C741.6,288.3,736.9,288.4,733.8,285.6L733.8,285.6z M583.9,485.2
	c-0.2,0.3-0.4,0.6-0.7,0.9c1.7,1.3,3.4,2.5,5.2,3.7c0.3-0.2,0.7-0.5,1-0.7C587.6,487.9,585.7,486.6,583.9,485.2L583.9,485.2z
	 M593.6,492.1c1.3,0.9,2.7,1.8,4,2.7c-0.3,0.3-0.6,0.6-0.9,0.8c-1.4-0.9-2.8-1.9-4.2-2.9C592.8,492.5,593.2,492.3,593.6,492.1
	L593.6,492.1z M602.6,498c1.2,0.8,2.5,1.6,3.8,2.4c-0.3,0.3-0.5,0.6-0.7,0.9c-0.2-0.1-0.4-0.2-0.5-0.3c0.2-1-0.4-1.6-1.8-1.7
	c-0.3,0-0.6,0-0.9,0c-0.4-0.2-0.7-0.5-1.1-0.7C601.7,498.4,602.1,498.2,602.6,498L602.6,498z M611.3,503.5c0.1,0.1,0.2,0.1,0.3,0.2
	c-0.5,0.1-1,0.3-1.5,0.5l-0.3-0.2C610.3,503.8,610.8,503.6,611.3,503.5L611.3,503.5z M615.6,506l0.3,0.2c-0.2,0.5-0.3,0.9-0.2,1.2
	c-0.2-0.1-0.5-0.3-0.7-0.4C615.2,506.6,615.5,506.3,615.6,506L615.6,506z M619.6,508.3c0.1,0.1,0.3,0.1,0.4,0.2
	c-0.5,0.2-1.1,0.3-1.6,0.4c-0.2-0.1-0.5-0.3-0.7-0.4C618.2,508.6,618.9,508.5,619.6,508.3L619.6,508.3z M527.5,493.5
	c0.4,4,0.9,8,1.5,11.9c-0.1,0.1-0.3,0.2-0.4,0.3c-0.2,0.2-0.4,0.4-0.6,0.5c-0.3-1.9-0.5-3.8-0.7-5.6c1.2-1.3,1.2-2.6-0.1-2.9
	c-0.1,0-0.2,0-0.2-0.1c-0.2-1.3-0.3-2.6-0.4-3.9C526.7,493.7,527.1,493.7,527.5,493.5L527.5,493.5z M529.7,510.3
	c0.1,0.4,0.1,0.8,0.2,1.2c-0.4,0.1-0.8,0.1-1.1,0.2c-0.1-0.4-0.1-0.9-0.2-1.3C528.9,510.4,529.3,510.4,529.7,510.3L529.7,510.3z
	 M530.7,516.7c0.2,1.2,0.4,2.4,0.6,3.6c-0.4,0-0.8,0-1.2-0.1c-0.2-0.9-0.3-1.9-0.5-2.8C530,517.2,530.4,516.9,530.7,516.7
	L530.7,516.7z M539.5,350.6c-26.9-2.9-53.4-10.3-78.4-22.1c15.7,38.5,37.5,73.1,64,103.1C526.9,404.1,531.7,376.9,539.5,350.6
	L539.5,350.6z"/>
<path fill-rule="evenodd" fill="#FFFFFF" d="M2569.3-18.1v1.5c-1.9,0.4-4.3,0.6-5.3,0.4c-1.1-0.2-0.4-0.8,1.7-1.3
	C2566.8-17.8,2568.1-18,2569.3-18.1L2569.3-18.1z M2569.3-3.8v5.2c-5.3,1-11,1.3-14,0.7c-3.8-0.7-1.8-2.6,4.4-4.2
	C2562.7-3,2566.2-3.5,2569.3-3.8L2569.3-3.8z M2569.3,6.2v40.9c-474.8-20.9-875.8,128.5-1289.7,251.4c0.5-0.3,1.1-0.6,1.6-0.9
	c-2.6,0.2-4.7,0.1-6.1-0.3c-0.2,0.4-0.6,0.7-1,1.1c-1,0.9-2.3,1.9-3.9,2.8c0.2,0,0.5-0.1,0.7-0.1c-7.3,2.2-14.6,4.3-21.9,6.4
	c-2.2,0.1-3.8-0.2-4.8-0.7c-0.3,0.5-0.8,1.1-1.4,1.7c-0.5,0.5-1.1,0.9-1.8,1.4c-8.6,2.5-17.2,5-25.7,7.5c-1.5-0.1-2.6-0.4-3.2-0.9
	c-0.3,0.6-0.9,1.3-1.9,2.1c-0.2,0.2-0.4,0.3-0.6,0.5c-9.2,2.7-18.5,5.3-27.7,7.9c-3.6-0.5-4.1-2.4-0.8-5c4.6-3.6,14.8-7.3,22.7-8.2
	c3.9-0.5,6.6-0.2,7.8,0.7c0.3-0.7,0.9-1.4,1.8-2.2c4.4-3.7,14.5-7.6,22.4-8.6c3.5-0.4,6.1-0.3,7.6,0.4c0.3-0.5,0.8-1.1,1.4-1.7
	c4.1-3.8,13.8-7.8,21.8-8.8c3.1-0.4,5.5-0.3,7,0.1c0.3-0.4,0.6-0.8,1.1-1.3c4-4,13.7-8.2,22-9.3c2.8-0.4,5-0.4,6.7-0.1
	c0.2-0.2,0.4-0.5,0.6-0.8c3.8-4.1,13.5-8.4,21.9-9.7c2.7-0.4,5-0.4,6.7-0.1c0.2-0.5,0.5-1,1-1.5c1.4-1.7,3.9-3.4,6.9-5
	c-0.7,0.2-1.4,0.3-2.2,0.4c-6.3,0.9-9.3-0.9-6.8-4c2.5-3.1,9.6-6.4,15.9-7.3c6.3-0.9,9.4,0.8,6.9,4c-0.8,1-2.2,2.1-3.8,3.1
	c1.6-0.4,3.1-0.8,4.7-1c2.3-0.3,4.3-0.4,5.9-0.2c0.1-0.1,0.1-0.2,0.2-0.2c1.3-1.7,3.6-3.4,6.3-4.9c-1.1,0.3-2.3,0.5-3.4,0.7
	c-6.5,1-9.7-0.9-7.2-4.1c2.5-3.2,9.7-6.6,16.2-7.6c6.5-1,9.7,0.9,7.2,4.1c-0.8,1-2,2-3.6,3c2.1-0.6,4.2-1.1,6.3-1.4
	c1.5-0.2,2.8-0.3,4-0.3c1.6-1.9,4.3-3.7,7.5-5.3c-0.7,0.2-1.4,0.3-2.1,0.4c-6.4,1-9.8-0.9-7.4-4.2c2.4-3.2,9.9-6.8,16.3-7.8
	c6.4-1,9.8,0.9,7.4,4.2c-1,1.3-2.7,2.6-4.8,3.8c1.6-0.4,3.1-0.8,4.7-1c2.1-0.3,3.9-0.4,5.4-0.3c1.4-1.7,3.7-3.4,6.5-5
	c-0.3,0.1-0.6,0.1-1,0.2c-6.8,1-10.4-1-7.8-4.4c2.6-3.4,10.3-7.1,17.2-8.1c6.9-1,10.4,0.9,7.8,4.4c-0.8,1.1-2.2,2.3-4,3.3
	c1.1-0.3,2.3-0.5,3.4-0.6c1.9-0.3,3.5-0.4,5-0.4c1.3-1.4,3.2-2.9,5.5-4.3c-7.2,1-10.7-1-8-4.6c2.7-3.6,10.8-7.4,18.1-8.5
	c3.9-0.6,6.8-0.3,8.1,0.7c-0.1-0.7,0.2-1.6,1-2.5c2.9-3.7,11.4-7.6,19-8.7c3.4-0.5,6.1-0.3,7.6,0.4c0.1-0.6,0.5-1.2,1-1.8
	c3.1-3.8,12.1-7.8,20-8.9c3-0.4,5.4-0.3,7.1,0.1c0.2-0.4,0.5-0.8,0.9-1.3c3.5-4,13.1-8.1,21.5-9.2c2.7-0.4,4.9-0.4,6.6-0.1
	c0.2-0.2,0.4-0.5,0.6-0.7c3.8-4.1,14.3-8.3,23.1-9.4c2.4-0.3,4.5-0.3,6.1-0.1c0.1-0.1,0.1-0.2,0.2-0.2c2.1-2.1,6-4.3,10.5-6
	c-1.2,0.3-2.3,0.4-3.4,0.6c-6.7,0.8-9.6-1.1-6.3-4.1c3.3-3.1,11.8-6.3,18.6-7c6.8-0.8,9.5,1.1,6.1,4.2c-1.5,1.4-4,2.7-7,3.9
	c2.1-0.5,4.3-0.9,6.3-1.1c2.3-0.3,4.3-0.3,5.9-0.2c2.4-2,6.3-4.1,10.9-5.8c-1.9,0.5-3.8,0.8-5.5,1c-7,0.8-9.9-1.2-6.2-4.3
	c3.7-3.1,12.9-6.4,20-7.2c7.1-0.8,9.8,1.2,6,4.3c-1.7,1.4-4.5,2.9-7.7,4.1c3-0.8,6-1.4,8.8-1.7c1.4-0.1,2.7-0.2,3.8-0.2
	c2.1-1.5,4.9-2.9,8.2-4.2c-0.3,0-0.6,0.1-0.9,0.1c-7.5,0.8-10.4-1.3-6.2-4.6c4.2-3.3,14.2-6.6,21.9-7.4c7.7-0.7,10.3,1.3,5.9,4.6
	c-1.4,1-3.3,2-5.5,3c1.3-0.2,2.5-0.4,3.7-0.5c2.1-0.2,3.8-0.2,5.3-0.1c2-1.3,4.7-2.7,7.7-3.9c-8,0.7-10.7-1.4-5.9-4.9
	c4.8-3.5,15.6-6.8,23.9-7.6c4.4-0.4,7.2,0.1,8,1.1c0.3-0.7,1.2-1.5,2.6-2.4c5.4-3.5,16.9-6.9,25.6-7.6c3.9-0.3,6.5,0,7.7,0.7
	c0.5-0.5,1.3-1.1,2.3-1.8c5.9-3.6,18.3-7,27.3-7.6c4-0.3,6.6,0.1,7.8,0.8c0.6-0.7,1.6-1.6,3.2-2.4c6.5-3.6,19.8-7.1,29.1-7.6
	c3.3-0.2,5.7,0,7,0.5c0.5-0.3,1-0.6,1.6-0.9c3.3-1.7,8-3.3,13.1-4.6c-1.4,0.2-2.8,0.3-4.1,0.4c-7.2,0.4-8.6-1.5-3-4.2
	c5.6-2.7,16.1-5.2,23.4-5.6c7.3-0.4,8.3,1.5,2.6,4.3c-2.3,1.1-5.3,2.1-8.5,3c2.6-0.4,5-0.7,7.3-0.8c3.1-0.2,5.3,0,6.7,0.4
	c0.3-0.2,0.7-0.4,1.1-0.6c7.7-3.7,22.6-7.1,32.5-7.5c2.7-0.1,4.8,0,6.3,0.4c0.1-0.1,0.3-0.1,0.4-0.2c4.2-1.9,10.2-3.7,16.5-5.1
	c-1.4,0.2-2.7,0.3-4,0.3c-7.5,0.3-8.5-1.8-2.1-4.6c6.5-2.8,18.4-5.3,25.9-5.5c7.5-0.2,8.2,1.9,1.7,4.6c-2.9,1.2-6.8,2.4-10.9,3.3
	c2.6-0.3,5.2-0.5,7.4-0.6c2.6-0.1,4.6,0,6,0.3c3.9-1.6,9-3.1,14.5-4.3c-0.7,0-1.4,0.1-2.1,0.1c-7.9,0.2-8.8-2-1.6-4.9
	c7.2-2.9,19.8-5.4,27.8-5.5c8-0.1,8.4,2.1,1.2,4.9c-2.6,1-5.9,2-9.3,2.8c1.8-0.2,3.6-0.3,5.2-0.3c2.5,0,4.4,0.1,5.8,0.3
	c4-1.5,9.2-3,14.5-4.1c-1.7,0.2-3.2,0.2-4.7,0.3c-8.1,0.1-8.8-2.1-1.1-5c7.7-2.9,20.5-5.3,28.6-5.4c8.2-0.1,8.3,2.2,0.6,5
	c-2.9,1.1-6.5,2.1-10.2,2.9c3-0.3,5.8-0.5,8.2-0.5c1.5,0,2.8,0,3.9,0.1c3.5-1.2,7.6-2.3,12-3.2c-0.2,0-0.5,0-0.7,0
	c-8.3,0-8.7-2.3-0.6-5.2c8.1-3,21.5-5.3,29.8-5.3c8.3,0,8.2,2.4,0.1,5.3c-2.5,0.9-5.3,1.7-8.4,2.4c1.3-0.1,2.5-0.1,3.6-0.1
	c2.2,0,3.9,0.1,5.2,0.4c3.5-1.2,7.7-2.2,12-3.2c-8.2,0-8.3-2.5,0-5.4c8.3-2.9,22.3-5.2,30.4-5.1c8.1,0.1,7.8,2.6-0.5,5.4
	c-2.3,0.8-4.9,1.5-7.7,2.2c1,0,2.1-0.1,3,0c2.1,0,3.7,0.2,5,0.4c3.2-1,6.9-1.9,10.7-2.7c-7.7-0.2-7.3-2.7,1.2-5.6
	c8.8-2.9,23.2-5.2,31.4-5c4.2,0.1,6.1,0.8,5.7,1.9c1.2-0.6,2.9-1.3,5-2c9.2-2.9,23.5-5.1,31.8-4.8c3.9,0.1,5.7,0.8,5.6,1.7
	c1.2-0.5,2.6-1.1,4.4-1.6c9.3-2.9,24-5,32-4.6c3.5,0.2,5.3,0.8,5.3,1.7c1.1-0.5,2.4-0.9,4-1.4c9.6-2.9,24.2-4.9,32.1-4.4
	c3.3,0.2,4.9,0.8,5.1,1.6c1-0.4,2.2-0.8,3.5-1.1c9.9-2.9,24.2-4.8,32-4.2c3.1,0.2,4.7,0.8,4.9,1.6c0.9-0.3,1.9-0.7,3.1-1
	c9.9-2.8,23.9-4.6,31.4-3.9c3.5,0.3,4.9,1.1,4.5,2.1c1.4-0.7,3.4-1.4,5.8-2.1c9.6-2.7,23.3-4.3,30.3-3.5c2.1,0.2,3.4,0.6,3.9,1.2
	c0.6-0.2,1.3-0.4,2.1-0.6c9.5-2.6,23-4.1,29.6-3.3c3,0.4,4.1,1.1,3.7,2.1c1.1-0.4,2.4-0.8,3.8-1.2c9.2-2.5,22.2-3.9,28.4-3
	c2.8,0.4,3.8,1.2,3.2,2.2c1.2-0.5,2.6-0.9,4.2-1.3c9-2.4,21.7-3.7,27.5-2.7c2.8,0.5,3.6,1.3,2.8,2.4c1.2-0.5,2.7-0.9,4.4-1.4
	c8.9-2.4,20.7-3.5,26.2-2.4c2.9,0.5,3.5,1.5,2.3,2.7c1.3-0.5,3-1.1,4.9-1.6c8.5-2.3,19.9-3.2,24.9-2.2c3,0.6,3.2,1.8,1.3,3.2
	C2567.8,6.8,2568.5,6.5,2569.3,6.2L2569.3,6.2z M2569.3,62.6C1970.9,36.3,1489.7,273.8,952.4,390.1c1.3,0.3,3.2,0.3,5.7,0.2
	c0.6,0,1.2-0.1,1.8-0.1c-4.4,1.2-8.5,2.6-11.8,4c-0.5,0.2-0.9,0.4-1.3,0.6h0c-1.3-0.4-3.5-0.6-6.6-0.4c-1,0.1-2.1,0.1-3.3,0.3
	c3.8-1,7.4-2.2,10.3-3.3c-11.1,2.4-22.2,4.7-33.4,7c0.6,0,1.3,0,2-0.1c0.9,0,1.8-0.1,2.7-0.2c-4.8,1.2-9.3,2.6-12.9,4
	c-0.7,0.3-1.3,0.5-1.8,0.8c-1.1-0.5-3.4-0.7-6.8-0.6c-1.3,0.1-2.6,0.2-4,0.3c0.5-0.1,1-0.2,1.5-0.4c-7.5,1.5-15,2.9-22.5,4.3
	c-3.6,0.9-7,2-9.9,3.1c-1,0.4-1.8,0.7-2.6,1.1c-0.8-0.5-2.5-0.8-5.3-0.8c-10.9,2-21.8,3.9-32.8,5.8c-1.1,0.4-2.2,0.7-3.2,1.1
	c-2.9,1-5,2-6.3,2.8h0c0.1-0.8-1.4-1.4-4.5-1.5c-10.9,1.8-21.8,3.6-32.8,5.3c-1.2,0.4-2.4,0.7-3.5,1.1c-1.9,0.6-3.4,1.2-4.7,1.8l0,0
	c0-0.6-0.9-1.1-2.8-1.3c-11.6,1.7-23.2,3.4-34.8,5c-1,0.3-1.9,0.6-2.8,0.8c-2.6,0.8-4.5,1.6-5.9,2.3c0.6-0.8-0.3-1.4-2.6-1.7
	c-10.3,1.4-20.7,2.7-31.1,4c-1.8,0.5-3.6,0.9-5.2,1.4c-1.8,0.5-3.3,1.1-4.5,1.6c-0.3-0.7-2.1-1.1-5.4-1.1c-0.6,0-1.3,0-2.1,0
	c-5.2,0.6-10.3,1.2-15.5,1.8c-5.4,0.9-10.8,2.1-15.2,3.4c-9.8,2.9-11.5,5.4-3.4,5.5c8.1,0.1,23.3-2.3,33.3-5.2
	c1.7-0.5,3.2-1,4.4-1.5c0.3,0.7,2.1,1.1,5.5,1.1c8.5,0,23.7-2.5,33.8-5.6c2.6-0.8,4.5-1.5,5.9-2.2c-0.9,1.2,0.9,1.9,5.7,1.9
	c1.6,0,3.5-0.1,5.5-0.3c-4.4,0.9-8.8,1.9-12.6,3.1c12.2-1.6,24.3-3.3,36.5-5.1c-0.9-0.3-2.4-0.4-4.5-0.4c-1.4,0-2.9,0.1-4.6,0.2
	c5.1-1,10.2-2.3,14.3-3.6c2-0.6,3.5-1.2,4.8-1.8c-0.1,1,1.9,1.5,6.2,1.5c1.4,0,3-0.1,4.7-0.3c-4,0.9-7.9,1.9-11.3,2.9
	c11.9-1.8,23.8-3.7,35.7-5.6c-0.9-0.1-2.2-0.2-3.7-0.1c-1.2,0-2.5,0.1-3.9,0.2c4.9-1,9.6-2.3,13.3-3.5c2.8-1,4.9-1.9,6.1-2.7
	c-0.1,1,2.1,1.6,6.8,1.5c1.8,0,3.9-0.2,6.1-0.4c-4.3,0.9-8.7,1.9-12.5,3.1c10.3-1.7,20.7-3.6,31-5.4c-0.3,0-0.5,0-0.8,0
	c-1.6,0-3.3,0.2-5.2,0.4c6.1-1.2,12.1-2.8,16.8-4.5c0.9-0.3,1.7-0.6,2.5-1l0,0c0.9,0.6,3.1,0.9,6.9,0.8c1.5-0.1,3.2-0.2,5-0.4
	l-0.3,0.1c7.2-1.3,14.3-2.7,21.5-4.1c3.5-0.9,6.8-2,9.5-3c0.7-0.3,1.3-0.5,1.9-0.8c0.8,0.4,2.1,0.6,4.1,0.7
	c12.8-2.6,25.6-5.2,38.3-7.9c0.3-0.1,0.6-0.2,0.8-0.4c0.1,0,0.2,0.1,0.3,0.1c206-43.9,403.5-106,602.5-164.5c-0.1,0-0.2,0-0.3,0
	c0.4-0.3,0.7-0.5,1.1-0.8c0.4,0,0.8,0,1.2-0.1c-0.2,0.1-0.3,0.3-0.4,0.4C1870.2,139.8,2197,54,2569.3,70.4V62.6L2569.3,62.6z
	 M733.3,426.6c-3.8-0.7-1.9-2.7,5.4-5.2c9.2-3.1,23.4-5.7,32.1-5.8c5.1-0.1,7.2,0.7,6.2,2c1.1-0.8,3.1-1.7,5.8-2.6
	c8.9-3.1,23.4-5.9,32.2-6.2c4.5-0.1,6.8,0.5,6.6,1.5c1.1-0.7,2.7-1.4,4.8-2.2c8.9-3.3,23.1-6.2,32.2-6.5c5.9-0.2,8.1,0.7,6.6,2.3
	c-15.1,3-30.3,5.8-45.5,8.5c0-0.1-0.1-0.2,0-0.4c-0.3,0.2-0.7,0.4-1.1,0.6c-14,2.5-28,4.9-42.1,7.2c-0.9-0.4-1.1-0.9-0.5-1.5
	c-1.1,0.7-3,1.6-5.7,2.5C758,422.9,745.7,424.8,733.3,426.6L733.3,426.6z M865.8,403.9c0.3-1,2.4-2.3,6.2-3.8
	c4.4-1.7,10.4-3.4,16.3-4.7c-2.5,0.4-4.8,0.6-6.8,0.7c-7.6,0.3-8.1-1.7-1.3-4.5c6.7-2.8,18.1-5.3,25.6-5.7c7.6-0.4,8.4,1.6,1.7,4.4
	c-3.3,1.4-7.8,2.7-12.5,3.7c3.2-0.5,6.3-0.9,8.9-1c4-0.2,6.4,0.2,7.1,1c0.9-0.5,2-1.1,3.4-1.6c8.3-3.5,22.4-6.7,31.6-7.3
	c3-0.2,5.1,0,6.3,0.4C923.7,392.1,894.8,398.2,865.8,403.9L865.8,403.9z M955.2,385c0.3-0.1,0.5-0.2,0.8-0.4
	c8.1-3.6,21.8-7,31.2-7.6c1.1-0.1,2-0.1,2.9-0.1C978.4,379.7,966.8,382.4,955.2,385L955.2,385z M1001.8,374.2
	c6.8-2.5,15.3-4.6,22.4-5.5C1016.8,370.5,1009.3,372.4,1001.8,374.2L1001.8,374.2z M1080.7,354.4c-7.2,0.5-8.7-1.5-3.5-4.6
	c5.3-3.2,15.7-6.3,23.3-7c7.6-0.7,9.8,1.3,4.6,4.5c-0.7,0.5-1.6,0.9-2.5,1.4C1095.3,350.6,1088,352.5,1080.7,354.4L1080.7,354.4z
	 M1114.2,345.5c-4.7-0.2-5.3-2.1-1.1-4.8c5.1-3.3,15.4-6.7,23.1-7.4c7.7-0.8,10.1,1.3,5.2,4.6c-0.2,0.1-0.4,0.3-0.6,0.4
	C1131.9,340.7,1123.1,343.2,1114.2,345.5L1114.2,345.5z M1148.2,336.3c9.4-2.6,18.7-5.2,28.1-7.8l0.2-0.1c4.7-3.5,1.9-5.6-5.8-4.7
	c-7.8,0.9-18.1,4.4-22.9,7.8C1144.1,334,1144.5,335.8,1148.2,336.3L1148.2,336.3z M-4.5,416.3c0.5-1,2-2.1,4.3-3
	c2-0.7,4.4-1.2,6.8-1.5L-4.5,416.3L-4.5,416.3z M6.5,411.8c3.4-0.3,6.8-0.1,9,0.7c1,0.4,1.7,0.9,2,1.4L6.5,411.8L6.5,411.8z
	 M17.5,413.9l-22,3.6c3.8,0.8,7.6,1.4,11.5,2.2c2.2-0.3,4.3-0.7,6.2-1.4l0,0C16.7,417,18.3,415.3,17.5,413.9L17.5,413.9z
	 M-4.5,409.3v-8.1c1.9,0.1,3.7,0.4,5,0.9c3.9,1.5,3.1,4.3-1.8,6.2l0,0C-2.3,408.8-3.4,409.1-4.5,409.3L-4.5,409.3z M-4.5,401.1v-8.8
	c3.8-0.6,8-0.5,10.7,0.6c4.1,1.6,3.6,4.5-1.2,6.4l0,0C2.3,400.5-1.3,401.1-4.5,401.1L-4.5,401.1z M-4.5,389.4L-4.5,389.4v-0.8v-0.5
	v-0.6v-0.2v-0.3v-0.1v-2.4c0.4-0.3,1-0.7,1.6-1c4.1-2,10.9-2.3,14.9-0.7c4,1.6,3.8,4.5-0.5,6.4l0,0c-4.3,1.9-11.1,2.3-14.9,0.7
	C-3.8,389.8-4.2,389.6-4.5,389.4L-4.5,389.4z M-4.5,376.5v-4.6C-2.9,373.2-2.8,375-4.5,376.5L-4.5,376.5z M-4.5,366.5v-6.8
	c0.2,0.1,0.4,0.1,0.6,0.2c3.7,1.5,4,4.2,0.9,5.9l0,0C-3.5,366.1-4,366.3-4.5,366.5L-4.5,366.5z M-4.5,354.6V348
	c0.8,0.1,1.5,0.3,2.2,0.6c2.9,1.2,3.5,3.5,1.1,4.9l0,0C-2.1,354.1-3.3,354.5-4.5,354.6L-4.5,354.6z M-4.5,341.3v-4.9
	c0.9,0.1,1.8,0.3,2.6,0.6c2.1,0.9,2.6,2.5,1.1,3.5l0,0C-1.8,341.1-3.1,341.4-4.5,341.3L-4.5,341.3z M-4.5,327.1v-2.8
	c0.7,0,1.5,0.1,2.1,0.4c1.3,0.6,1.6,1.4,0.8,2.1l0,0C-2.3,327.2-3.4,327.3-4.5,327.1L-4.5,327.1z M-4.5,311.8v-0.9
	C-4.2,311.2-4.1,311.5-4.5,311.8L-4.5,311.8C-4.5,311.8-4.5,311.8-4.5,311.8L-4.5,311.8z M20,313.8c-0.1,0.1-0.1,0.1-0.3,0
	c-0.2-0.1-0.2-0.1-0.1-0.2c0.1-0.1,0.1-0.1,0.3,0C20.1,313.7,20.1,313.7,20,313.8L20,313.8L20,313.8z M20.3,327.6
	c-0.3,0.2-0.9,0.2-1.3,0c-0.5-0.2-0.6-0.5-0.3-0.7c0.3-0.2,0.9-0.2,1.3,0C20.6,327.1,20.7,327.4,20.3,327.6L20.3,327.6L20.3,327.6z
	 M21.8,341.6c-0.8,0.5-2.4,0.6-3.5,0.1c-1.1-0.4-1.3-1.3-0.5-1.8c0.8-0.5,2.4-0.6,3.5-0.1C22.4,340.3,22.6,341.1,21.8,341.6
	L21.8,341.6L21.8,341.6z M43.9,342.2c-0.2,0.1-0.8,0.2-1.1,0c-0.3-0.1-0.4-0.4-0.1-0.5c0.2-0.1,0.8-0.2,1.1,0
	C44,341.7,44.1,342,43.9,342.2L43.9,342.2L43.9,342.2z M21.1,354.4c-1.6,0.9-4.5,1-6.3,0.3c-1.9-0.8-2.2-2.2-0.7-3.1
	c1.5-0.9,4.4-1,6.3-0.3C22.3,352.1,22.6,353.5,21.1,354.4L21.1,354.4L21.1,354.4z M43.9,355.2c-0.9,0.5-2.2,0.5-3.2,0.1
	c-1-0.4-1.1-1-0.3-1.5c0.9-0.5,2.2-0.6,3.2-0.1C44.6,354.1,44.8,354.7,43.9,355.2L43.9,355.2L43.9,355.2z M66.1,355.5
	c-0.3,0.1-0.5,0.2-0.8,0c-0.3-0.1-0.3-0.2-0.1-0.4c0.3-0.1,0.5-0.2,0.8,0C66.4,355.2,66.4,355.4,66.1,355.5L66.1,355.5L66.1,355.5z
	 M19.2,366.6c-2.5,1.3-6.7,1.5-9.5,0.4c-2.7-1.1-3-3.1-0.6-4.5c2.4-1.4,6.6-1.6,9.5-0.4C21.5,363.3,21.8,365.3,19.2,366.6
	L19.2,366.6L19.2,366.6z M41.7,367.2c-1.7,0.9-4.4,1-6.2,0.3c-1.8-0.7-1.9-1.9-0.3-2.8c1.6-0.9,4.3-1,6.2-0.3
	C43.2,365.2,43.4,366.4,41.7,367.2L41.7,367.2L41.7,367.2z M64.9,367.8c-0.9,0.5-2.3,0.5-3.3,0.2c-1-0.4-1.1-1-0.1-1.4
	c0.9-0.5,2.3-0.5,3.3-0.2C65.8,366.8,65.8,367.4,64.9,367.8L64.9,367.8L64.9,367.8z M87.4,367.9c-0.3,0.1-0.6,0.1-0.8,0
	c-0.3-0.1-0.3-0.2,0-0.4c0.3-0.1,0.6-0.1,0.8,0C87.7,367.6,87.7,367.7,87.4,367.9L87.4,367.9L87.4,367.9z M16,378.2
	c-3.4,1.7-9,1.9-12.3,0.6c-3.4-1.3-3.4-3.8-0.1-5.6c3.3-1.7,8.8-2,12.3-0.6C19.4,374.1,19.5,376.6,16,378.2L16,378.2L16,378.2z
	 M38.6,378.8c-2.7,1.3-7,1.5-9.7,0.5c-2.7-1-2.7-2.9,0-4.2c2.6-1.3,6.9-1.5,9.6-0.5C41.3,375.6,41.3,377.5,38.6,378.8L38.6,378.8
	L38.6,378.8z M61.5,379.2c-1.8,0.8-4.8,1-6.6,0.4c-1.8-0.6-1.8-1.9,0-2.7c1.8-0.8,4.8-1,6.6-0.3C63.3,377.1,63.3,378.4,61.5,379.2
	L61.5,379.2L61.5,379.2z M85.2,379.6c-1.1,0.5-2.8,0.6-3.9,0.2c-1.1-0.4-1.1-1.1,0-1.6c1.1-0.5,2.8-0.6,3.9-0.2
	C86.3,378.4,86.3,379,85.2,379.6L85.2,379.6L85.2,379.6z M109.2,378.6c-0.1,0.1-0.4,0.1-0.6,0c-0.1,0-0.1-0.2,0-0.2
	c0.1-0.1,0.4-0.1,0.6,0C109.3,378.4,109.3,378.5,109.2,378.6L109.2,378.6L109.2,378.6z M34.1,389.8c3.7-1.6,3.9-4,0.5-5.3
	c-3.4-1.3-9.3-1-12.8,0.7c-3.5,1.6-3.8,4.1-0.5,5.3C24.6,391.7,30.5,391.4,34.1,389.8L34.1,389.8L34.1,389.8z M57,390.1
	c-2.9,1.2-7.6,1.5-10.2,0.6c-2.6-0.9-2.4-2.8,0.4-4.1c2.8-1.3,7.5-1.5,10.1-0.5C60.1,387,59.9,388.9,57,390.1L57,390.1L57,390.1z
	 M81.8,389.7c-2.1,0.9-5.2,1.1-7.1,0.4c-1.9-0.6-1.7-1.8,0.3-2.7c2-0.9,5.1-1.1,7-0.4C84,387.6,83.9,388.8,81.8,389.7L81.8,389.7z
	 M104.6,389.3c-1.2,0.5-3.2,0.6-4.3,0.3c-1.1-0.4-1-1.1,0.2-1.6c1.2-0.5,3.2-0.6,4.3-0.3C105.9,388.1,105.8,388.8,104.6,389.3
	L104.6,389.3L104.6,389.3z M129.5,389.3c-0.5,0.2-1.1,0.2-1.5,0.1c-0.4-0.1-0.4-0.3,0.1-0.5c0.5-0.2,1.1-0.2,1.5-0.1
	C130,388.9,129.9,389.1,129.5,389.3L129.5,389.3L129.5,389.3z M29.7,399.5c-4.6,1.8-11.5,2.2-15.3,0.8c-3.7-1.4-3.2-4.2,1.2-6.1
	c4.4-1.9,11.3-2.2,15.2-0.8C34.8,394.9,34.2,397.6,29.7,399.5L29.7,399.5L29.7,399.5z M52.7,399.9c-3.9,1.5-10,1.9-13.2,0.7
	c-3.2-1.2-2.7-3.5,1-5.1c3.8-1.6,9.8-1.9,13.2-0.7C57.1,396,56.6,398.3,52.7,399.9L52.7,399.9L52.7,399.9z M76.2,400
	c-3.2,1.3-8.1,1.5-10.7,0.6c-2.7-0.9-2.3-2.7,0.9-4c3.2-1.3,7.9-1.5,10.7-0.6C79.8,397,79.4,398.8,76.2,400L76.2,400L76.2,400z
	 M100.3,400.1c-2.4,0.9-6.2,1.1-8.1,0.5c-2-0.6-1.7-2,0.6-2.9c2.3-0.9,6.1-1.1,8.1-0.5C103,397.9,102.7,399.2,100.3,400.1
	L100.3,400.1L100.3,400.1z M123.9,399.6c-1.6,0.6-4.3,0.8-5.7,0.4c-1.4-0.4-1.2-1.3,0.4-1.9c1.6-0.6,4.3-0.8,5.7-0.4
	C125.7,398.1,125.5,399,123.9,399.6L123.9,399.6L123.9,399.6z M149.6,399.4c-1,0.4-2.2,0.5-3.1,0.2c-0.9-0.2-0.8-0.6,0.2-1
	c1-0.4,2.2-0.5,3.1-0.2C150.7,398.6,150.6,399,149.6,399.4L149.6,399.4L149.6,399.4z M176.1,398.9c-0.2,0.1-0.2,0.1-0.3,0
	c-0.1,0-0.1,0,0-0.1C175.9,398.8,175.9,398.8,176.1,398.9C176.2,398.8,176.2,398.8,176.1,398.9L176.1,398.9L176.1,398.9z M22,409.1
	c4.9-1.8,5.7-4.6,1.8-6c-3.9-1.4-11.1-1.1-15.8,0.8c-4.7,1.9-5.5,4.6-1.8,6C9.8,411.3,17.1,410.9,22,409.1L22,409.1L22,409.1z
	 M45.9,409.8c-5,1.8-12.4,2.2-16.2,0.9c-3.8-1.4-2.9-4.1,1.9-6c4.8-1.9,12.2-2.3,16.2-0.9C51.7,405.2,50.9,408,45.9,409.8
	L45.9,409.8L45.9,409.8z M69.5,410L69.5,410c4.5-1.6,5.2-3.9,1.6-5.1c-3.6-1.2-10.1-0.8-14.4,0.8c-4.3,1.6-5.1,3.9-1.7,5.1
	C58.5,412,65.1,411.6,69.5,410L69.5,410z M93.7,410.1c-3.8,1.3-9.3,1.7-12.2,0.7c-2.9-0.9-2.3-2.8,1.4-4.2c3.7-1.4,9.2-1.7,12.2-0.7
	C98.1,406.8,97.5,408.7,93.7,410.1L93.7,410.1L93.7,410.1z M118.5,409.9c-3,1.1-7.2,1.3-9.6,0.6c-2.4-0.7-1.9-2.1,1-3.1
	c3-1.1,7.1-1.3,9.6-0.6C122,407.5,121.5,408.8,118.5,409.9L118.5,409.9L118.5,409.9z M142.8,409.2c-2.2,0.8-5.3,1-7.1,0.5
	c-1.8-0.5-1.5-1.5,0.7-2.2c2.2-0.8,5.3-1,7.1-0.5C145.4,407.5,145.1,408.4,142.8,409.2L142.8,409.2L142.8,409.2z M169.5,408.8
	c-1.4,0.5-3.6,0.7-4.8,0.4c-1.1-0.3-0.9-1,0.5-1.5c1.4-0.5,3.6-0.7,4.8-0.4C171.1,407.6,170.9,408.3,169.5,408.8L169.5,408.8z
	 M197,408.1c-0.7,0.2-1.7,0.3-2.3,0.2c-0.6-0.1-0.5-0.4,0.2-0.7c0.7-0.2,1.7-0.3,2.3-0.2C197.8,407.5,197.7,407.8,197,408.1
	L197,408.1L197,408.1z M225.7,407.2c-0.2,0.1-0.2,0.1-0.3,0c-0.2,0-0.2,0,0-0.1C225.5,407.1,225.5,407.1,225.7,407.2
	C225.8,407.1,225.8,407.1,225.7,407.2L225.7,407.2L225.7,407.2z M36.8,418.9C36.8,418.9,36.8,418.9,36.8,418.9
	c-5.1,1.8-12.3,2.1-15.9,0.8c-3.2-1.2-2.7-3.3,0.9-5c5.7,1.1,11.5,2.2,17.2,3.3C38.3,418.3,37.6,418.6,36.8,418.9L36.8,418.9z
	 M38.9,417.9c3.2-1.6,3.4-3.6,0.2-4.7c-3.8-1.3-10.9-1-15.9,0.8c-0.5,0.2-1,0.4-1.5,0.6C27.5,415.8,33.2,416.9,38.9,417.9
	L38.9,417.9z M61.2,419.4c-1.8,0.6-3.9,1.1-6,1.3c-4.2-0.7-8.4-1.4-12.6-2.1c-0.4-1.2,1.3-2.7,4.6-3.9c5.1-1.8,12.4-2.2,16.3-0.9
	C67.5,415.1,66.5,417.6,61.2,419.4L61.2,419.4L61.2,419.4z M55.1,420.7c-4.2-0.7-8.3-1.4-12.5-2.1c0.2,0.6,0.9,1.2,2.2,1.7
	C47.2,421.1,51.2,421.2,55.1,420.7L55.1,420.7z M86,419.6L86,419.6c5.1-1.7,6.1-4.1,2.2-5.3c-3.8-1.2-11.1-0.7-16,1
	c-4.9,1.7-6,4.1-2.3,5.3C73.6,421.8,80.9,421.3,86,419.6L86,419.6z M110.9,419.5c-4.3,1.4-10.7,1.8-13.8,0.9
	c-3.2-0.9-2.3-2.9,1.9-4.4c4.2-1.4,10.5-1.8,13.8-0.9C116.1,416,115.2,418,110.9,419.5L110.9,419.5L110.9,419.5z M136.7,419.2
	c-3.7,1.2-9,1.6-11.8,0.8c-2.8-0.8-2.1-2.4,1.6-3.6c3.6-1.2,8.9-1.6,11.8-0.8C141.1,416.4,140.5,418,136.7,419.2L136.7,419.2
	L136.7,419.2z M161.9,418.3c-2.9,0.9-7.1,1.3-9.3,0.7c-2.2-0.6-1.7-1.8,1.1-2.7c2.8-0.9,7-1.3,9.3-0.7
	C165.3,416.1,164.8,417.3,161.9,418.3L161.9,418.3L161.9,418.3z M189.6,417.6c-2.2,0.7-5.6,1-7.3,0.6c-1.7-0.4-1.4-1.3,0.8-2.1
	c2.2-0.7,5.5-1,7.3-0.6C192.2,416,191.8,416.9,189.6,417.6C189.6,417.6,189.6,417.6,189.6,417.6L189.6,417.6z M218.1,416.7
	c-1.5,0.5-3.6,0.7-4.8,0.4c-1.2-0.3-1-0.8,0.5-1.3c1.5-0.5,3.6-0.7,4.8-0.4C219.8,415.6,219.6,416.2,218.1,416.7L218.1,416.7
	L218.1,416.7z M247.7,415.5c-0.8,0.3-1.8,0.3-2.5,0.2c-0.6-0.1-0.5-0.4,0.2-0.6c0.8-0.2,1.8-0.3,2.5-0.2
	C248.6,415,248.5,415.2,247.7,415.5L247.7,415.5L247.7,415.5z M280.6,413.5c-0.2,0.1-0.6,0.1-0.7,0.1c-0.2,0-0.1-0.1,0.1-0.2
	c0.2-0.1,0.6-0.1,0.7-0.1C280.8,413.3,280.8,413.4,280.6,413.5L280.6,413.5L280.6,413.5z M18.7,421.9c4.1-0.7,8.5-0.6,11.1,0.3
	c1.6,0.6,2.3,1.3,2.1,2.2C27.5,423.6,23.1,422.7,18.7,421.9L18.7,421.9z M51.8,427.9c4.9-1.7,5.9-4,2.2-5.2
	c-3.8-1.3-11.1-0.9-16.3,0.9c-1.2,0.4-2.2,0.8-3,1.3C40.5,426,46.1,427,51.8,427.9L51.8,427.9z M76.2,428.5
	C76.2,428.5,76.2,428.5,76.2,428.5c-3.4,1.1-7.5,1.6-11.1,1.7c-2.3-0.4-4.6-0.8-7-1.2c-2.2-1.3-0.7-3.3,4.1-4.9
	c1.7-0.6,3.6-1,5.5-1.3c4.5,0.8,9.1,1.6,13.6,2.3C81.2,426.2,79.4,427.5,76.2,428.5L76.2,428.5z M81.4,425.1c0.1-0.8-0.7-1.5-2.3-2
	c-2.7-0.8-7.1-0.9-11.3-0.3C72.3,423.6,76.9,424.4,81.4,425.1L81.4,425.1z M102,428.6c-5.5,1.7-13.4,2.2-17.2,1.1
	c-2.9-0.9-2.8-2.5-0.1-4c6,1,12,1.8,18,2.7C102.5,428.5,102.2,428.6,102,428.6L102,428.6L102,428.6z M84.8,425.7
	c6,1,12.1,1.8,18.1,2.7c4.8-1.7,5.7-3.9,1.9-5c-4-1.1-11.8-0.6-17.1,1.1C86.5,424.8,85.6,425.2,84.8,425.7L84.8,425.7z M128,428.4
	c-5.1,1.6-12.3,2.1-15.9,1.1c-3.6-1-2.4-3.1,2.6-4.7c5-1.6,12.1-2.1,15.8-1.1C134.2,424.7,133.2,426.8,128,428.4L128,428.4
	L128,428.4z M154.9,427.9c-4.5,1.4-11,1.9-14.2,1c-3.2-0.8-2.2-2.6,2.2-4c4.4-1.4,10.8-1.8,14.1-1
	C160.3,424.7,159.4,426.6,154.9,427.9L154.9,427.9L154.9,427.9z M181.2,426.9c-3.8,1.2-9.5,1.6-12.3,1c-2.8-0.7-2-2.2,1.8-3.4
	c3.7-1.2,9.4-1.6,12.3-1C185.9,424.2,185.1,425.7,181.2,426.9L181.2,426.9L181.2,426.9z M209.8,426c-3.1,1-7.6,1.3-10,0.8
	c-2.4-0.5-1.8-1.7,1.3-2.6c3.1-1,7.5-1.3,10-0.8C213.5,423.8,213,425,209.8,426L209.8,426L209.8,426z M241.6,424.2
	c-2.4,0.7-6,1.1-7.9,0.7c-1.9-0.4-1.5-1.3,0.9-2c2.4-0.7,5.9-1.1,7.8-0.7C244.4,422.5,244,423.4,241.6,424.2L241.6,424.2
	L241.6,424.2z M95.4,435.1c1.4-1.2,1.1-2.4-1.3-3c-3.4-1-9.8-0.7-15,0.5C84.6,433.4,90,434.3,95.4,435.1L95.4,435.1z M117.5,437.2
	c-0.9,0.3-1.9,0.5-2.9,0.7c-5.4-0.8-10.9-1.6-16.3-2.4c0.8-0.8,2.5-1.6,4.8-2.3c5.6-1.7,13.7-2.2,17.7-1.2
	C124.8,433.1,123.3,435.5,117.5,437.2L117.5,437.2L117.5,437.2z M145,436.9c2.1-0.6,3.7-1.3,4.6-2c-5.7-0.7-11.5-1.4-17.2-2.2
	c-0.7,0.2-1.3,0.3-1.9,0.5c-5.6,1.7-7.1,3.9-3.2,4.9C131.1,439.1,139.2,438.5,145,436.9L145,436.9L145,436.9z M149.7,434.7
	c-5.7-0.7-11.4-1.4-17.1-2.1c5.3-1.2,11.9-1.5,15.5-0.7C150.6,432.6,151,433.6,149.7,434.7L149.7,434.7z M173.1,436.2
	c-1.2,0.3-2.5,0.6-3.8,0.9c-4.9-0.6-9.9-1.2-14.8-1.8c0.7-0.7,2.2-1.5,4.7-2.3c5.4-1.6,12.7-2.2,16.7-1.3
	C179.8,432.7,178.6,434.6,173.1,436.2L173.1,436.2L173.1,436.2z M168.7,437.2c-4.8-0.6-9.6-1.2-14.4-1.8c-0.6,0.8,0,1.6,2,2.1
	C159.2,438.2,164.1,438,168.7,437.2L168.7,437.2z M202.6,434.4c-4.9,1.4-11.8,2-15.3,1.2c-3.5-0.7-2.3-2.5,2.4-3.9
	c4.7-1.4,11.6-2,15.2-1.3C208.5,431.3,207.5,433,202.6,434.4L202.6,434.4L202.6,434.4z M128.8,439.9c3-0.2,5.8,0,7.7,0.4
	c1,0.2,1.6,0.5,1.9,0.9C135.3,440.8,132,440.4,128.8,439.9L128.8,439.9z M163.6,444.3L163.6,444.3l-0.1,0
	c-6.2-0.7-12.4-1.5-18.6-2.3c0.9-0.4,2.1-0.9,3.5-1.3c6.1-1.7,14.4-2.4,18.7-1.4C171.4,440.3,169.9,442.5,163.6,444.3L163.6,444.3z
	 M191.8,443.2L191.8,443.2c3.3-0.9,5.3-1.9,5.7-2.8c-5.2-0.5-10.4-1-15.6-1.6c-1.9,0.3-3.8,0.7-5.5,1.2c-6,1.7-7.6,3.8-3.4,4.7
	C177.1,445.6,185.5,445,191.8,443.2L191.8,443.2z M182.6,438.7c4.7-0.7,9.5-0.8,12.5-0.2c1.9,0.4,2.7,1,2.5,1.7
	C192.6,439.7,187.6,439.2,182.6,438.7L182.6,438.7z M1863,51.5C1863,51.5,1863,51.5,1863,51.5C1863.3,51.4,1863.3,51.4,1863,51.5
	c-0.3-0.1-0.3-0.1-0.5,0c-0.2,0.1-0.2,0.1,0,0.1C1862.8,51.6,1862.8,51.6,1863,51.5L1863,51.5z M1907.5,43.9L1907.5,43.9
	C1907.7,43.8,1907.7,43.8,1907.5,43.9c-0.2-0.1-0.2-0.1-0.5,0c-0.2,0.1-0.2,0.1,0,0.1C1907.2,44,1907.2,44,1907.5,43.9L1907.5,43.9z
	 M1952.9,36.7L1952.9,36.7c0.3-0.1,0.3-0.2,0-0.2c-0.2,0-0.8,0.1-1,0.2c-0.3,0.1-0.3,0.2,0,0.2C1952.1,36.9,1952.6,36.8,1952.9,36.7
	L1952.9,36.7z M1998.4,29.8L1998.4,29.8c0.3-0.1,0.3-0.2,0-0.2c-0.2,0-0.8,0.1-1,0.2c-0.3,0.1-0.3,0.2,0,0.2
	C1997.6,30,1998.2,29.9,1998.4,29.8L1998.4,29.8z M2044.5,23.3C2044.5,23.3,2044.5,23.3,2044.5,23.3c0.5-0.2,0.6-0.3,0.1-0.3
	c-0.5,0-1,0.1-1.6,0.3c-0.5,0.2-0.6,0.3-0.1,0.3C2043.4,23.6,2043.9,23.5,2044.5,23.3L2044.5,23.3z M2093.2,16.4L2093.2,16.4
	c0.6-0.2,0.6-0.3,0.1-0.3c-0.5,0-1,0.1-1.6,0.3c-0.6,0.2-0.6,0.3-0.1,0.3C2092.1,16.6,2092.6,16.6,2093.2,16.4L2093.2,16.4z
	 M2139.3,10.7L2139.3,10.7c0.6-0.2,0.7-0.3,0.2-0.3c-0.5,0-1.5,0.2-2.1,0.3c-0.6,0.2-0.7,0.3-0.2,0.3
	C2137.6,11.1,2138.7,10.9,2139.3,10.7L2139.3,10.7z M2184.7,5.5C2184.7,5.5,2184.7,5.5,2184.7,5.5c0.6-0.2,0.7-0.3,0.3-0.4
	c-0.5,0-1.5,0.1-2.1,0.3c-0.6,0.2-0.7,0.3-0.2,0.3C2183.1,5.8,2184.2,5.7,2184.7,5.5L2184.7,5.5z M2229.9,0.7
	c-0.9,0.2-1.9,0.4-2.6,0.4c-0.7,0-0.5-0.2,0.4-0.4c0.9-0.2,1.9-0.4,2.6-0.4C2230.9,0.3,2230.8,0.4,2229.9,0.7L2229.9,0.7L2229.9,0.7
	z M1816,68.7L1816,68.7c0.6-0.3,0.6-0.5-0.2-0.5c-0.7,0-2.1,0.4-2.8,0.6c-0.6,0.3-0.5,0.5,0.2,0.5C1814,69.3,1815.3,69,1816,68.7
	L1816,68.7z M1858.7,60.8C1858.7,60.8,1858.7,60.8,1858.7,60.8c0.9-0.4,0.8-0.6-0.1-0.6c-1,0-2.4,0.4-3.3,0.7
	c-0.9,0.4-0.8,0.6,0.1,0.6C1856.4,61.5,1857.8,61.1,1858.7,60.8L1858.7,60.8z M1899.8,53.3C1899.9,53.3,1899.9,53.3,1899.8,53.3
	c0.9-0.4,0.9-0.7-0.1-0.7c-1,0-2.9,0.4-3.9,0.8c-0.9,0.4-0.9,0.7,0.1,0.7C1897,54.1,1898.9,53.7,1899.8,53.3L1899.8,53.3z
	 M1944.1,46L1944.1,46c1.2-0.4,1.2-0.8,0-0.7c-1.2,0-3.2,0.4-4.4,0.9c-1.2,0.4-1.2,0.8,0,0.7C1940.9,46.9,1942.9,46.5,1944.1,46
	L1944.1,46z M1988.8,39.2L1988.8,39.2c1.5-0.5,1.6-0.9,0.1-0.8c-1.5,0-3.5,0.4-5,0.9c-1.5,0.5-1.6,0.9-0.1,0.8
	C1985.3,40.1,1987.3,39.7,1988.8,39.2L1988.8,39.2z M2036.3,31.9L2036.3,31.9c1.6-0.5,1.7-0.9,0.2-0.8c-1.5,0-3.5,0.4-5.1,0.9
	c-1.6,0.5-1.6,0.9-0.2,0.8C2032.7,32.7,2034.7,32.4,2036.3,31.9L2036.3,31.9z M2081.5,25.8L2081.5,25.8c1.6-0.5,1.8-0.9,0.3-0.9
	c-1.4,0-4,0.4-5.6,0.9c-1.6,0.5-1.8,0.9-0.3,0.9C2077.4,26.7,2079.9,26.3,2081.5,25.8L2081.5,25.8z M2126.7,20.1L2126.7,20.1
	c1.9-0.6,2.1-1,0.5-1c-1.6,0-4.2,0.4-6.1,1c-1.9,0.6-2.1,1-0.5,1C2122.2,21.1,2124.8,20.7,2126.7,20.1L2126.7,20.1z M2171.5,14.9
	L2171.5,14.9c1.9-0.6,2.2-1.1,0.7-1.1c-1.6,0-4.6,0.4-6.6,1c-1.9,0.6-2.2,1.1-0.6,1.1C2166.6,15.9,2169.6,15.4,2171.5,14.9
	L2171.5,14.9z M1772,86.1L1772,86.1c1.5-0.8,1.2-1.3-0.7-1.2c-1.9,0.1-5,0.9-6.5,1.7c-1.5,0.8-1.1,1.3,0.8,1.2
	C1767.4,87.6,1770.4,86.9,1772,86.1L1772,86.1z M1812.9,77.8L1812.9,77.8c1.8-0.8,1.5-1.5-0.7-1.3c-2.2,0.1-5.8,1-7.6,1.8
	c-1.8,0.8-1.5,1.5,0.7,1.3C1807.5,79.5,1811.1,78.7,1812.9,77.8L1812.9,77.8z M1854.5,69.9L1854.5,69.9c2.1-0.9,1.9-1.6-0.6-1.4
	c-2.5,0.1-6.1,1-8.3,1.9c-2.1,0.9-1.8,1.6,0.6,1.4C1848.8,71.7,1852.4,70.9,1854.5,69.9L1854.5,69.9z M1897.3,62.4L1897.3,62.4
	c2.5-1,2.3-1.7-0.4-1.6c-2.7,0.1-6.9,1-9.4,2c-2.4,1-2.2,1.7,0.5,1.6C1890.6,64.3,1894.8,63.4,1897.3,62.4L1897.3,62.4z M1938,55.3
	L1938,55.3c2.8-1.1,2.7-1.8-0.2-1.7c-2.9,0.1-7.3,1-10.1,2c-2.8,1.1-2.6,1.8,0.3,1.7C1930.9,57.2,1935.2,56.3,1938,55.3L1938,55.3z
	 M1984.1,47.6L1984.1,47.6c2.9-1,2.9-1.9,0-1.8c-2.9,0.1-7.8,1-10.7,2c-2.9,1.1-2.9,1.9,0.1,1.8
	C1976.3,49.5,1981.2,48.6,1984.1,47.6L1984.1,47.6z M2028.2,41.1C2028.2,41.1,2028.2,41.1,2028.2,41.1c3.2-1.1,3.4-1.9,0.2-1.9
	c-3.1,0-8.1,0.9-11.3,2c-3.2,1.1-3.3,2-0.1,1.9C2020.1,43.1,2024.9,42.2,2028.2,41.1L2028.2,41.1z M2072.5,35.1L2072.5,35.1
	c3.3-1.1,3.6-2,0.5-2c-3.1,0-8.6,0.9-11.9,2c-3.3,1.1-3.5,2-0.4,2C2063.7,37.1,2069.1,36.2,2072.5,35.1L2072.5,35.1z M2116.7,29.4
	C2116.7,29.4,2116.7,29.4,2116.7,29.4c3.7-1.2,4-2.1,0.7-2.1c-3.3,0-8.8,0.8-12.4,2c-3.7,1.2-3.9,2.1-0.6,2.1
	C2107.6,31.5,2113,30.6,2116.7,29.4L2116.7,29.4z M2160.9,24.2L2160.9,24.2c4-1.2,4.4-2.2,1-2.3c-3.4-0.1-9.4,0.8-13.4,2.1
	c-4,1.2-4.4,2.2-0.9,2.3C2151.1,26.3,2156.9,25.4,2160.9,24.2L2160.9,24.2z M1772,95L1772,95c3.1-1.6,2.3-2.6-1.8-2.3
	c-4.1,0.3-9.6,1.7-12.6,3.3c-3,1.6-2.2,2.6,1.9,2.3C1763.6,98.1,1769,96.6,1772,95L1772,95z M1811.9,86.8L1811.9,86.8
	c3.4-1.7,2.8-2.8-1.6-2.5c-4.4,0.3-10.5,1.8-13.9,3.4c-3.4,1.7-2.6,2.8,1.7,2.5C1802.5,90,1808.5,88.5,1811.9,86.8L1811.9,86.8z
	 M1852.7,79L1852.7,79c3.8-1.7,3.3-2.9-1.4-2.7c-4.6,0.2-11.3,1.8-15.1,3.5c-3.8,1.7-3.1,2.9,1.5,2.7
	C1842.3,82.2,1848.9,80.7,1852.7,79L1852.7,79z M1894.4,71.4L1894.4,71.4c4.2-1.8,3.8-3.1-1.1-2.9c-4.9,0.2-12.2,1.8-16.4,3.6
	c-4.2,1.8-3.6,3.1,1.3,2.9C1883,74.8,1890.2,73.2,1894.4,71.4L1894.4,71.4z M1938.7,63.4L1938.7,63.4c4.4-1.8,4.1-3.1-0.7-3
	c-4.9,0.1-12.9,1.8-17.3,3.6c-4.4,1.8-3.9,3.1,0.9,3C1926.5,66.8,1934.3,65.2,1938.7,63.4L1938.7,63.4z M1979,56.7
	C1979,56.7,1979,56.7,1979,56.7c4.8-1.8,4.7-3.2-0.4-3.1c-5.1,0.1-13.2,1.7-18,3.5c-4.8,1.8-4.5,3.2,0.6,3.1
	C1966.3,60.1,1974.2,58.5,1979,56.7L1979,56.7z M2022.4,50.3C2022.4,50.3,2022.4,50.3,2022.4,50.3c5.2-1.9,5.3-3.4,0-3.3
	c-5.3,0.1-14,1.6-19.2,3.5c-5.2,1.9-5.1,3.4,0.2,3.3C2008.7,53.8,2017.2,52.2,2022.4,50.3L2022.4,50.3z M2065.9,44.3L2065.9,44.3
	c5.6-1.9,5.8-3.5,0.4-3.5c-5.5,0-14.7,1.6-20.3,3.5c-5.6,1.9-5.6,3.5-0.1,3.5C2051.3,47.8,2060.3,46.2,2065.9,44.3L2065.9,44.3z
	 M2109.4,38.7C2109.4,38.7,2109.4,38.7,2109.4,38.7c6-2,6.4-3.7,0.8-3.7c-5.6-0.1-15.4,1.5-21.4,3.5c-6,2-6.2,3.7-0.5,3.7
	C2093.9,42.2,2103.5,40.7,2109.4,38.7L2109.4,38.7z M1736,112.3L1736,112.3c4-2.4,2.5-4-3.4-3.5c-5.9,0.5-14.2,2.8-18.1,5.2
	c-3.9,2.4-2.2,4,3.6,3.5C1723.9,117.1,1732,114.7,1736,112.3L1736,112.3z M1774.1,103.8L1774.1,103.8c4.6-2.5,3.2-4.2-3.2-3.8
	c-6.4,0.4-15.5,2.9-19.9,5.4c-4.5,2.5-2.8,4.2,3.5,3.7C1760.7,108.8,1769.5,106.4,1774.1,103.8L1774.1,103.8z M1812.9,95.7
	L1812.9,95.7c5-2.6,3.8-4.4-2.9-4c-6.7,0.4-16.5,2.9-21.4,5.5c-5,2.6-3.4,4.4,3.2,3.9C1798.4,100.7,1807.9,98.3,1812.9,95.7
	L1812.9,95.7z M1895.4,79.5L1895.4,79.5c6-2.7,5.2-4.7-2.1-4.4c-7.3,0.3-18.5,2.8-24.5,5.5c-6,2.7-4.7,4.7,2.5,4.4
	C1878.5,84.7,1889.3,82.2,1895.4,79.5L1895.4,79.5z M1742.3,123.1L1742.3,123.1c1.6-1,3.5-1.9,5.7-2.8c-2.7,0-4.6-0.3-5.6-0.9
	c-0.5,0.5-1.2,1.1-2.2,1.7c-1.3,0.8-2.9,1.6-4.7,2.4c0.6-0.1,1.2-0.1,1.8-0.2C1739.2,123.1,1740.9,123.1,1742.3,123.1L1742.3,123.1z
	 M1780.1,113.7L1780.1,113.7c1.8-0.9,3.8-1.7,6-2.5c-2.9,0-4.9-0.3-5.9-1c-0.5,0.7-1.5,1.5-3,2.4c-0.7,0.4-1.5,0.8-2.4,1.2
	c0.2,0,0.4,0,0.5,0C1777.1,113.7,1778.7,113.7,1780.1,113.7L1780.1,113.7z M1817.5,105.5L1817.5,105.5c1.6-0.7,3.4-1.4,5.3-2.1
	c-2,0-3.5-0.2-4.6-0.6c-0.4,0.3-0.9,0.5-1.4,0.8c-1.3,0.7-2.7,1.3-4.3,2c0.2,0,0.4,0,0.5,0C1814.7,105.5,1816.2,105.4,1817.5,105.5
	L1817.5,105.5z M1856,97.6L1856,97.6c1.4-0.6,2.9-1.1,4.5-1.7c-1.6-0.1-2.9-0.2-3.8-0.5c-0.3,0.1-0.6,0.3-0.9,0.5
	c-1.2,0.6-2.5,1.2-4,1.7C1853.3,97.6,1854.7,97.5,1856,97.6L1856,97.6z M1894.9,90.1L1894.9,90.1c1.1-0.4,2.3-0.9,3.6-1.3
	c-1.2-0.1-2.2-0.2-3-0.4c0,0,0,0-0.1,0c-1.2,0.6-2.5,1.1-4,1.6C1892.8,90.1,1893.9,90.1,1894.9,90.1L1894.9,90.1z M1935,82.9
	L1935,82.9c0.9-0.3,1.8-0.6,2.7-0.9c-0.8-0.1-1.6-0.2-2.2-0.3c-0.9,0.4-1.9,0.8-3,1.1C1933.5,82.9,1934.3,82.9,1935,82.9L1935,82.9z
	 M1975.2,76.2L1975.2,76.2c0.7-0.2,1.5-0.5,2.3-0.7c-0.5-0.1-1-0.1-1.5-0.2c-0.8,0.3-1.6,0.6-2.4,0.9
	C1974.2,76.2,1974.7,76.2,1975.2,76.2L1975.2,76.2z M1821.9,59.4L1821.9,59.4C1822.1,59.3,1822.1,59.3,1821.9,59.4
	c-0.3-0.1-0.3-0.1-0.5,0c-0.2,0.1-0.2,0.1,0,0.1C1821.6,59.5,1821.6,59.5,1821.9,59.4L1821.9,59.4z M2317.4-7.8
	c-0.9,0.2-1.9,0.4-2.5,0.3c-0.6,0-0.4-0.2,0.4-0.4c0.9-0.2,1.9-0.3,2.5-0.3C2318.5-8.2,2318.3-8,2317.4-7.8
	C2317.4-7.8,2317.4-7.8,2317.4-7.8L2317.4-7.8z M2357.8-11.5c-0.9,0.2-1.9,0.3-2.4,0.3c-0.6,0-0.4-0.2,0.5-0.4
	c0.9-0.2,1.8-0.3,2.4-0.3C2358.9-11.9,2358.7-11.7,2357.8-11.5L2357.8-11.5L2357.8-11.5z M2399-14.7c-0.9,0.2-1.8,0.3-2.4,0.3
	c-0.6-0.1-0.4-0.2,0.5-0.4c0.9-0.2,1.8-0.3,2.4-0.3C2400.1-15.1,2399.9-14.9,2399-14.7L2399-14.7L2399-14.7z M2439.1-17.5
	c-0.9,0.2-2.2,0.4-2.8,0.3c-0.5-0.1-0.2-0.3,0.6-0.5c0.9-0.2,2.2-0.4,2.8-0.3C2440.3-18,2440-17.7,2439.1-17.5
	C2439.1-17.5,2439.1-17.5,2439.1-17.5L2439.1-17.5z M2477.7-19.9c-0.8,0.2-2.2,0.3-2.7,0.3c-0.5-0.1-0.2-0.3,0.7-0.5
	c0.8-0.2,2.2-0.3,2.7-0.3C2478.9-20.4,2478.5-20.1,2477.7-19.9L2477.7-19.9L2477.7-19.9z M2514.8-22c-0.8,0.2-2.1,0.3-2.6,0.2
	c-0.5-0.1-0.1-0.3,0.7-0.5c0.8-0.2,2.1-0.3,2.6-0.2C2516-22.5,2515.7-22.2,2514.8-22L2514.8-22L2514.8-22z M2550.3-23.7
	c-0.8,0.2-1.6,0.3-2.1,0.2c-0.4-0.1-0.2-0.3,0.6-0.4c0.8-0.2,1.6-0.3,2.1-0.2C2551.4-24.1,2551.1-23.9,2550.3-23.7L2550.3-23.7
	L2550.3-23.7z M2215.9,10L2215.9,10c2.2-0.6,2.6-1.2,0.8-1.2c-1.8-0.1-4.8,0.4-7,1c-2.2,0.6-2.6,1.2-0.8,1.2
	C2210.7,11.1,2213.7,10.7,2215.9,10L2215.9,10z M2259.7,5.6L2259.7,5.6c2.2-0.6,2.7-1.2,1-1.3c-1.7-0.1-5.2,0.4-7.4,1
	c-2.3,0.6-2.7,1.2-1,1.3C2254,6.7,2257.4,6.2,2259.7,5.6L2259.7,5.6z M2302.4,1.6c-2.2,0.6-5.6,1-7.3,0.9c-1.7-0.1-1.2-0.7,1.1-1.3
	c2.2-0.6,5.7-1,7.3-0.9C2305.2,0.4,2304.7,1,2302.4,1.6C2302.4,1.6,2302.4,1.6,2302.4,1.6L2302.4,1.6z M2344.4-2
	c-2.5,0.7-5.8,1.1-7.6,0.9c-1.8-0.1-1.2-0.8,1.3-1.4c2.5-0.7,5.9-1.1,7.7-0.9C2347.5-3.3,2346.9-2.7,2344.4-2L2344.4-2L2344.4-2z
	 M2383.2-5.4c-2.5,0.6-5.8,1-7.5,0.9c-1.7-0.2-1.1-0.8,1.4-1.4c2.5-0.6,5.8-1,7.5-0.9C2386.3-6.7,2385.7-6.1,2383.2-5.4
	C2383.2-5.4,2383.2-5.4,2383.2-5.4L2383.2-5.4z M2422.8-8.3c-2.5,0.6-5.6,1-7.3,0.8c-1.6-0.2-1-0.8,1.5-1.4c2.5-0.6,5.7-1,7.3-0.8
	C2425.9-9.6,2425.2-8.9,2422.8-8.3L2422.8-8.3L2422.8-8.3z M2461-10.8c-2.4,0.6-5.5,0.9-7.1,0.7c-1.5-0.2-0.9-0.8,1.6-1.4
	c2.5-0.6,5.6-0.9,7.1-0.7C2464.2-12,2463.5-11.4,2461-10.8C2461-10.8,2461-10.8,2461-10.8L2461-10.8z M2498-12.9
	c-2.4,0.6-5.4,0.9-6.8,0.7c-1.5-0.2-0.7-0.8,1.7-1.4c2.4-0.6,5.4-0.9,6.9-0.7C2501.1-14.1,2500.4-13.5,2498-12.9L2498-12.9
	L2498-12.9z M2533.5-14.6c-2.3,0.6-5.2,0.8-6.6,0.6c-1.4-0.2-0.6-0.9,1.7-1.4c2.4-0.6,5.3-0.8,6.6-0.6
	C2536.6-15.8,2535.8-15.2,2533.5-14.6L2533.5-14.6L2533.5-14.6z M2204.5,19.4C2204.5,19.4,2204.5,19.4,2204.5,19.4
	c4-1.2,4.6-2.3,1.3-2.4c-3.3-0.1-9.8,0.8-13.8,2c-4,1.2-4.6,2.3-1.2,2.4C2194.2,21.5,2200.5,20.5,2204.5,19.4L2204.5,19.4z
	 M2247.5,14.9C2247.5,14.9,2247.5,14.9,2247.5,14.9c4.3-1.2,5.1-2.4,1.6-2.5c-3.4-0.2-9.8,0.7-14.1,2c-4.3,1.2-5,2.4-1.5,2.5
	C2237,17,2243.2,16.2,2247.5,14.9L2247.5,14.9z M2289.8,10.9L2289.8,10.9c4.6-1.3,5.4-2.4,1.9-2.6c-3.5-0.2-9.8,0.6-14.4,1.9
	c-4.6,1.3-5.4,2.4-1.8,2.6C2279,13,2285.2,12.2,2289.8,10.9L2289.8,10.9z M2331.2,7.3C2331.2,7.3,2331.2,7.3,2331.2,7.3
	c4.6-1.2,5.6-2.5,2.2-2.7c-3.4-0.3-10,0.6-14.6,1.8c-4.6,1.3-5.5,2.5-2.1,2.7C2320.1,9.3,2326.6,8.5,2331.2,7.3L2331.2,7.3z
	 M2369.4,3.9L2369.4,3.9c4.5-1.2,5.6-2.4,2.4-2.7c-3.2-0.3-9.7,0.5-14.3,1.7c-4.6,1.2-5.6,2.5-2.3,2.7
	C2358.5,5.8,2364.9,5.1,2369.4,3.9L2369.4,3.9z M2408.5,1c-4.5,1.2-10.7,1.9-13.9,1.6c-3.2-0.3-2-1.6,2.5-2.8
	c4.6-1.2,10.9-1.9,14-1.6C2414.2-1.4,2413-0.2,2408.5,1L2408.5,1L2408.5,1z M2446.6-1.5c-4.7,1.2-10.8,1.9-13.9,1.5
	c-3.2-0.4-2-1.6,2.8-2.8c4.8-1.2,10.9-1.9,14-1.5C2452.6-4,2451.3-2.7,2446.6-1.5L2446.6-1.5L2446.6-1.5z M2485.5-4.3
	c-4.4,1.1-9.8,1.7-12.7,1.3c-2.8-0.4-1.6-1.6,2.8-2.7c4.4-1.1,10-1.7,12.7-1.3C2491.1-6.6,2489.9-5.5,2485.5-4.3L2485.5-4.3
	L2485.5-4.3z M2520.7-6.1c-4.3,1.1-9.6,1.6-12.2,1.1c-2.7-0.4-1.4-1.6,2.9-2.7c4.4-1.1,9.7-1.6,12.3-1.1
	C2526.3-8.4,2525-7.2,2520.7-6.1L2520.7-6.1L2520.7-6.1z M2554.6-7.6c-4.2,1.1-9.3,1.5-11.8,1c-2.5-0.5-1.2-1.6,3-2.7
	c4.3-1.1,9.4-1.5,11.9-1C2560.2-9.8,2558.8-8.6,2554.6-7.6L2554.6-7.6L2554.6-7.6z M2152.8,33.5c6.3-2,6.9-3.8,1.3-3.9
	c-5.7-0.1-16,1.5-22.3,3.5c-6.4,2-6.7,3.8-1,3.9C2136.4,37.1,2146.5,35.5,2152.8,33.5L2152.8,33.5z M2195.5,28.7L2195.5,28.7
	c6.6-2,7.5-3.8,1.7-4c-5.8-0.2-16,1.3-22.7,3.4c-6.7,2.1-7.3,3.9-1.4,4C2178.9,32.2,2188.9,30.7,2195.5,28.7L2195.5,28.7z
	 M2237.8,24.3L2237.8,24.3c6.7-2,7.7-3.9,2.1-4.2c-5.6-0.3-16.2,1.2-23,3.2c-6.8,2-7.6,3.9-1.9,4.1
	C2220.7,27.7,2231.1,26.3,2237.8,24.3L2237.8,24.3z M2279.3,20.3C2279.3,20.3,2279.3,20.3,2279.3,20.3c7-2,8.2-3.9,2.6-4.3
	c-5.6-0.3-16.1,1.1-23.2,3.1c-7.1,2-8,4-2.3,4.3C2262.1,23.7,2272.3,22.3,2279.3,20.3L2279.3,20.3z M2320,16.6L2320,16.6
	c7.2-2,8.6-4,3-4.4c-5.6-0.4-15.9,0.9-23.3,3c-7.4,2.1-8.5,4-2.7,4.4C2302.8,20,2312.8,18.7,2320,16.6L2320,16.6z M2359.8,13.4
	L2359.8,13.4c7.2-2,8.8-4,3.4-4.5c-5.4-0.5-15.9,0.8-23.2,2.8c-7.3,2-8.7,4.1-3.2,4.5C2342.3,16.7,2352.6,15.4,2359.8,13.4
	L2359.8,13.4z M2396.3,10.3L2396.3,10.3c7.1-1.9,8.8-3.9,3.7-4.4c-5.1-0.5-15,0.6-22.3,2.6c-7.3,2-8.7,3.9-3.4,4.4
	C2379.5,13.4,2389.2,12.3,2396.3,10.3L2396.3,10.3z M2436.1,7.1C2436.1,7.1,2436.1,7.1,2436.1,7.1c6.8-1.8,8.6-3.8,3.9-4.4
	c-4.7-0.6-14.3,0.4-21.3,2.3c-7,1.9-8.6,3.8-3.7,4.4C2419.9,10,2429.3,9,2436.1,7.1L2436.1,7.1z M2472.3,5L2472.3,5
	c6.7-1.8,8.6-3.7,4.2-4.4c-4.4-0.6-13.7,0.3-20.6,2.1c-6.9,1.8-8.6,3.8-4,4.4C2456.5,7.7,2465.6,6.8,2472.3,5L2472.3,5z M2507.3,3.2
	L2507.3,3.2c6.6-1.7,8.6-3.7,4.4-4.4c-4.2-0.7-13.2,0.2-20,1.9c-6.8,1.8-8.6,3.7-4.2,4.4C2491.9,5.8,2500.7,4.9,2507.3,3.2
	L2507.3,3.2z M2540.8,1.7L2540.8,1.7c6.2-1.6,8.3-3.6,4.5-4.3c-3.8-0.7-12.5,0.1-18.9,1.7c-6.4,1.6-8.3,3.6-4.4,4.3
	C2526,4.1,2534.6,3.4,2540.8,1.7L2540.8,1.7z M2145.8,45.2L2145.8,45.2c3.1-0.9,6.5-1.7,10.1-2.5c-3.7-0.2-5.4-0.9-5-1.9
	c-1.1,0.6-2.7,1.3-4.7,1.9c-2.2,0.7-4.7,1.4-7.3,2c0.8,0,1.5,0,2.2,0C2143,44.8,2144.6,45,2145.8,45.2L2145.8,45.2z M2187.3,40.4
	L2187.3,40.4c2.9-0.8,6.1-1.6,9.4-2.2c-3-0.2-4.5-0.9-4.4-1.8c-1.1,0.5-2.6,1.1-4.3,1.6c-2.1,0.7-4.5,1.3-6.9,1.9c0.6,0,1.2,0,1.8,0
	C2184.7,40,2186.2,40.1,2187.3,40.4L2187.3,40.4z M2228.5,35.9L2228.5,35.9c2.7-0.7,5.7-1.4,8.8-2c-2.6-0.3-3.9-0.8-4-1.6
	c-1,0.4-2.3,0.9-3.8,1.3c-2,0.6-4.2,1.2-6.6,1.7c0.5,0,1,0,1.4,0C2226,35.5,2227.4,35.6,2228.5,35.9L2228.5,35.9z M2269,31.8
	L2269,31.8c2.5-0.7,5.3-1.3,8-1.8c-2.2-0.3-3.4-0.8-3.6-1.5c-0.9,0.4-2,0.7-3.2,1.1c-1.9,0.6-4,1.1-6.2,1.6c0.3,0,0.7,0,1,0.1
	C2266.6,31.4,2268,31.6,2269,31.8L2269,31.8z M2308.9,28.1L2308.9,28.1c2.2-0.6,4.7-1.2,7.2-1.7c-1.7-0.3-2.6-0.8-2.8-1.3
	c-0.9,0.3-1.9,0.7-3,1c-1.8,0.5-3.8,1-5.8,1.5c0.2,0,0.4,0,0.7,0C2306.7,27.7,2307.9,27.9,2308.9,28.1L2308.9,28.1z M2350,24.3
	L2350,24.3c2.6-0.6,5.4-1.2,8.3-1.7c-2.4-0.4-3.5-1.1-3.1-1.9c-1.4,0.7-3.4,1.4-5.9,2.1c-1,0.3-2.1,0.6-3.2,0.8c0.1,0,0.1,0,0.2,0
	C2347.9,23.8,2349.1,24,2350,24.3L2350,24.3z M2387.8,21.5C2387.8,21.5,2387.8,21.5,2387.8,21.5c2.6-0.6,5.3-1.2,8.1-1.6
	c-0.2,0-0.3,0-0.4,0c-2.1-0.2-3.4-0.6-3.9-1.2c-0.6,0.2-1.3,0.4-2,0.6c-1.9,0.5-3.9,1-6.1,1.5c0.3,0,0.6,0.1,0.9,0.1
	C2385.8,21,2387,21.2,2387.8,21.5L2387.8,21.5z M2423.4,18.7L2423.4,18.7c2.5-0.6,5.1-1.1,7.8-1.5c-2-0.4-2.9-1.1-2.6-1.9
	c-1.1,0.4-2.5,0.9-4,1.3c-2,0.6-4.2,1.1-6.4,1.5c1.1,0,2.1,0.1,3,0.2C2422.1,18.4,2422.8,18.5,2423.4,18.7L2423.4,18.7z
	 M2458.6,16.7L2458.6,16.7c2.6-0.6,5.4-1.2,8.2-1.6c-2.1-0.5-2.9-1.2-2.4-2.1c-1.2,0.5-2.6,0.9-4.2,1.3c-1.9,0.5-3.9,1-6,1.4
	c0.4,0,0.7,0.1,1,0.1C2456.8,16.1,2457.8,16.4,2458.6,16.7L2458.6,16.7z M2492.9,15.1L2492.9,15.1c2.8-0.6,5.7-1.2,8.7-1.6
	c-2.3-0.5-3-1.3-2.3-2.2c-1.2,0.5-2.7,1-4.4,1.4c-1.9,0.5-4,1-6.2,1.4c0.4,0,0.7,0.1,1.1,0.1C2491.2,14.4,2492.2,14.7,2492.9,15.1
	L2492.9,15.1z M2526,13.7L2526,13.7c2.9-0.7,6-1.3,9.1-1.7c-2.4-0.6-3-1.5-1.9-2.6c-1.3,0.6-3,1.1-5,1.7c-2,0.5-4.1,1-6.3,1.4
	c0.4,0.1,0.8,0.1,1.2,0.2C2524.4,13,2525.4,13.3,2526,13.7L2526,13.7z M2557.9,12.8L2557.9,12.8c3.1-0.7,6.3-1.3,9.5-1.7
	c0,0,0,0,0,0c-3-0.6-3.3-1.8-1.5-3.1c-1.4,0.7-3.4,1.4-5.8,2.1c-2,0.6-4.3,1-6.5,1.4c0.5,0.1,1,0.2,1.4,0.2
	C2556.4,11.9,2557.4,12.3,2557.9,12.8L2557.9,12.8z M2096.2,58.2L2096.2,58.2c0.2,0,0.3-0.1,0.5-0.1c-0.1,0-0.2,0-0.3-0.1
	c-0.2,0.1-0.4,0.1-0.6,0.2C2096,58.2,2096.1,58.2,2096.2,58.2L2096.2,58.2z M2545.9,20.2L2545.9,20.2c0.2,0,0.3-0.1,0.5-0.1
	c0,0-0.1,0-0.1-0.1c-0.2,0-0.3,0.1-0.5,0.1C2545.8,20.2,2545.8,20.2,2545.9,20.2L2545.9,20.2z M2055,63.9L2055,63.9
	c0.4-0.1,0.7-0.2,1.1-0.3c-0.3,0-0.6-0.1-0.8-0.1c-0.4,0.1-0.8,0.3-1.2,0.4C2054.4,63.8,2054.7,63.8,2055,63.9L2055,63.9z
	 M2274.1-3.8c-0.9,0.2-1.9,0.4-2.5,0.3c-0.6,0-0.5-0.2,0.4-0.4c0.9-0.2,1.9-0.4,2.5-0.3C2275.1-4.2,2275-4,2274.1-3.8
	C2274.1-3.8,2274.1-3.8,2274.1-3.8L2274.1-3.8z M1515.1,143.6L1515.1,143.6C1515.2,143.5,1515.2,143.5,1515.1,143.6
	c-0.3,0-0.3,0-0.4,0.1c-0.1,0.1-0.1,0.1,0.1,0.1C1515,143.7,1515,143.7,1515.1,143.6L1515.1,143.6z M1549.2,132.6L1549.2,132.6
	C1549.4,132.5,1549.3,132.5,1549.2,132.6c-0.3,0-0.3,0-0.4,0.1c-0.1,0.1-0.1,0.1,0.1,0.1C1549.1,132.7,1549.1,132.7,1549.2,132.6
	L1549.2,132.6z M1583.6,122.7L1583.6,122.7c0.1-0.1,0.1-0.2-0.2-0.1c-0.2,0-0.6,0.1-0.7,0.2c-0.1,0.1-0.1,0.2,0.2,0.2
	C1583.1,122.9,1583.4,122.8,1583.6,122.7L1583.6,122.7z M1619,113.1L1619,113.1c0.2-0.1,0.1-0.2-0.2-0.2c-0.2,0-0.6,0.1-0.8,0.2
	c-0.1,0.1-0.1,0.2,0.2,0.2C1618.5,113.3,1618.8,113.2,1619,113.1L1619,113.1z M1656,103.6L1656,103.6c0.3-0.2,0.3-0.3-0.2-0.2
	c-0.5,0-0.9,0.2-1.2,0.4c-0.3,0.2-0.3,0.3,0.2,0.2C1655.2,103.9,1655.6,103.8,1656,103.6L1656,103.6z M1694.2,94.5L1694.2,94.5
	c0.4-0.2,0.2-0.3-0.2-0.3c-0.5,0-1.3,0.3-1.7,0.5c-0.4,0.2-0.2,0.3,0.2,0.3C1693,94.9,1693.9,94.6,1694.2,94.5L1694.2,94.5z
	 M1733.7,85.6L1733.7,85.6c0.6-0.3,0.5-0.4-0.3-0.4c-0.7,0.1-1.6,0.3-2.2,0.6c-0.6,0.3-0.5,0.4,0.3,0.4
	C1732.3,86.1,1733.2,85.9,1733.7,85.6L1733.7,85.6z M1774.4,77L1774.4,77c0.6-0.3,0.5-0.5-0.2-0.5c-0.7,0-2.1,0.4-2.7,0.7
	c-0.6,0.3-0.5,0.5,0.3,0.5C1772.5,77.6,1773.8,77.3,1774.4,77L1774.4,77z M1290.8,235.3L1290.8,235.3c0.1-0.1,0.1-0.1-0.1-0.1
	c-0.2,0-0.2,0-0.3,0.1c-0.1,0.1-0.1,0.1,0.1,0.1C1290.7,235.4,1290.7,235.4,1290.8,235.3L1290.8,235.3z M1318.3,225L1318.3,225
	c0.1-0.1,0.1-0.1-0.1-0.1c-0.2,0-0.2,0-0.3,0.1c-0.1,0.1-0.1,0.1,0.1,0.1C1318.2,225.1,1318.2,225.1,1318.3,225L1318.3,225z
	 M1346,214.5L1346,214.5c0.1-0.1,0-0.2-0.3-0.1c-0.2,0-0.5,0.2-0.6,0.3c-0.1,0.1,0,0.2,0.3,0.1
	C1345.6,214.7,1345.9,214.6,1346,214.5L1346,214.5z M1373.8,204C1373.8,204,1373.8,204,1373.8,204c0.2-0.2,0-0.3-0.4-0.2
	c-0.4,0.1-0.7,0.2-0.8,0.4c-0.2,0.2,0,0.3,0.4,0.2C1373.4,204.4,1373.7,204.2,1373.8,204L1373.8,204z M1401.8,193.6L1401.8,193.6
	c0.2-0.2,0-0.3-0.4-0.2c-0.4,0.1-0.7,0.2-0.9,0.4c-0.2,0.2,0,0.3,0.4,0.2C1401.3,193.9,1401.6,193.8,1401.8,193.6L1401.8,193.6z
	 M1430.5,183.1L1430.5,183.1c0.2-0.2-0.1-0.3-0.5-0.3c-0.4,0.1-1,0.3-1.2,0.5c-0.2,0.2,0.1,0.3,0.5,0.3
	C1429.7,183.6,1430.3,183.3,1430.5,183.1L1430.5,183.1z M1459.8,172.7L1459.8,172.7c0.3-0.3,0.1-0.4-0.6-0.4
	c-0.6,0.1-1.2,0.3-1.5,0.7c-0.3,0.3-0.1,0.4,0.6,0.4C1458.9,173.3,1459.5,173,1459.8,172.7L1459.8,172.7z M1490,162.4L1490,162.4
	c0.3-0.3,0-0.5-0.7-0.4c-0.6,0.1-1.6,0.5-1.9,0.8c-0.3,0.3,0,0.5,0.7,0.4C1488.7,163.1,1489.7,162.7,1490,162.4L1490,162.4z
	 M1522,151.3L1522,151.3c0.3-0.3,0-0.5-0.6-0.4c-0.6,0.1-1.6,0.5-2,0.8c-0.3,0.3,0,0.5,0.6,0.4C1520.7,152,1521.7,151.6,1522,151.3
	L1522,151.3z M1552.2,141.6L1552.2,141.6c0.5-0.4,0.2-0.6-0.7-0.5c-0.9,0.1-1.9,0.5-2.4,0.9c-0.5,0.4-0.2,0.6,0.7,0.5
	C1550.7,142.3,1551.7,142,1552.2,141.6L1552.2,141.6z M1585.6,131.7c0.5-0.4,0.2-0.7-0.7-0.6c-0.9,0.1-2.3,0.6-2.8,1
	c-0.5,0.4-0.2,0.7,0.7,0.6C1583.7,132.6,1585.1,132.1,1585.6,131.7L1585.6,131.7z M1620.5,122.1L1620.5,122.1
	c0.9-0.6,0.5-0.9-0.8-0.7c-1.4,0.1-2.9,0.6-3.7,1.2c-0.9,0.6-0.5,0.9,0.9,0.7C1618.2,123.1,1619.7,122.7,1620.5,122.1L1620.5,122.1z
	 M1656.5,112.7C1656.5,112.7,1656.5,112.7,1656.5,112.7c0.9-0.6,0.6-1-0.8-0.8c-1.4,0.1-3.3,0.7-4.3,1.3c-0.9,0.6-0.5,1,0.8,0.8
	C1653.6,113.9,1655.6,113.3,1656.5,112.7L1656.5,112.7z M1693.7,103.5L1693.7,103.5c1.2-0.7,0.8-1.1-0.8-0.9
	c-1.6,0.1-3.7,0.7-4.8,1.4c-1.2,0.7-0.8,1.1,0.8,0.9C1690.5,104.8,1692.5,104.2,1693.7,103.5L1693.7,103.5z M1732.4,94.7
	L1732.4,94.7c1.4-0.8,1.1-1.2-0.8-1.1c-1.9,0.1-4.4,0.8-5.9,1.6c-1.4,0.8-1,1.2,0.9,1.1C1728.4,96.1,1730.9,95.4,1732.4,94.7
	L1732.4,94.7z M1019.3,331c-0.1,0.1-0.5,0.2-0.7,0.2c-0.2,0-0.3-0.1-0.2-0.1c0.1-0.1,0.5-0.2,0.7-0.2
	C1019.4,330.9,1019.5,330.9,1019.3,331L1019.3,331L1019.3,331z M1054.1,322.4c-0.1,0.1-0.5,0.2-0.7,0.2c-0.2,0-0.3-0.1-0.2-0.1
	c0.1-0.1,0.5-0.2,0.7-0.2C1054.1,322.2,1054.2,322.3,1054.1,322.4L1054.1,322.4L1054.1,322.4z M1088.1,313.4c-0.2,0.2-0.6,0.3-1,0.4
	c-0.5,0-0.5,0-0.3-0.2c0.2-0.2,0.6-0.3,1-0.3C1088.2,313.2,1088.3,313.3,1088.1,313.4L1088.1,313.4L1088.1,313.4z M1121.9,303.3
	c-0.2,0.2-0.6,0.3-1,0.4c-0.4,0-0.5,0-0.3-0.2c0.2-0.2,0.6-0.3,1-0.4C1122,303,1122.1,303.1,1121.9,303.3L1121.9,303.3L1121.9,303.3
	z M1153.4,293.9c-0.2,0.2-0.5,0.3-1,0.4c-0.4,0.1-0.5,0-0.3-0.2c0.2-0.2,0.5-0.3,1-0.4C1153.5,293.6,1153.7,293.7,1153.4,293.9
	L1153.4,293.9L1153.4,293.9z M1184.3,284.2L1184.3,284.2c0.2-0.2,0-0.3-0.5-0.3c-0.4,0.1-1,0.3-1.2,0.5c-0.2,0.2,0,0.3,0.5,0.3
	C1183.5,284.6,1184.1,284.4,1184.3,284.2L1184.3,284.2z M1214.2,274.3L1214.2,274.3c0.3-0.3,0-0.4-0.6-0.4c-0.6,0.1-1.2,0.3-1.5,0.6
	c-0.3,0.3,0,0.4,0.6,0.4C1213.4,274.9,1214,274.6,1214.2,274.3L1214.2,274.3z M1243.2,264.3L1243.2,264.3c0.2-0.3,0-0.4-0.6-0.4
	c-0.6,0.1-1.2,0.3-1.5,0.6c-0.3,0.3,0,0.4,0.6,0.4C1242.4,264.8,1242.9,264.6,1243.2,264.3L1243.2,264.3z M1269.7,254.4
	L1269.7,254.4c0.2-0.3-0.1-0.5-0.7-0.4c-0.6,0.1-1.5,0.5-1.7,0.8c-0.2,0.3,0.1,0.5,0.7,0.4C1268.6,255.1,1269.5,254.7,1269.7,254.4
	L1269.7,254.4z M1297.8,244.1L1297.8,244.1c0.3-0.4-0.1-0.6-0.9-0.5c-0.8,0.1-1.7,0.5-2,0.9c-0.3,0.4,0.1,0.6,0.9,0.5
	C1296.7,244.9,1297.5,244.5,1297.8,244.1L1297.8,244.1z M1325.6,233.7L1325.6,233.7c0.3-0.4-0.2-0.7-1-0.6c-0.8,0.1-1.9,0.6-2.2,1
	c-0.3,0.4,0.2,0.7,1,0.6C1324.2,234.6,1325.3,234.1,1325.6,233.7L1325.6,233.7z M1353.2,223.2L1353.2,223.2c0.4-0.5-0.1-0.8-1.1-0.6
	c-1,0.2-2.1,0.7-2.5,1.2c-0.4,0.5,0.1,0.8,1.1,0.6C1351.7,224.3,1352.8,223.7,1353.2,223.2L1353.2,223.2z M1380.9,212.8
	L1380.9,212.8c0.5-0.6,0-0.9-1.3-0.7c-1.2,0.2-2.3,0.7-2.8,1.3c-0.5,0.6,0,0.9,1.3,0.7C1379.3,213.9,1380.4,213.4,1380.9,212.8
	L1380.9,212.8z M1409,202.3L1409,202.3c0.6-0.7-0.1-1.1-1.5-0.8c-1.4,0.2-2.8,0.9-3.4,1.6c-0.5,0.7,0.1,1.1,1.5,0.8
	C1407,203.6,1408.4,203,1409,202.3L1409,202.3z M1437.3,191.8L1437.3,191.8c0.6-0.7-0.1-1.1-1.6-0.9c-1.4,0.2-3.2,1-3.7,1.7
	c-0.6,0.7,0.2,1.1,1.6,0.9C1435,193.3,1436.7,192.5,1437.3,191.8L1437.3,191.8z M1467.1,180.5L1467.1,180.5c0.7-0.8,0-1.2-1.6-1
	c-1.7,0.2-3.4,1-4.2,1.8c-0.7,0.8,0,1.2,1.7,1C1464.6,182.1,1466.3,181.3,1467.1,180.5L1467.1,180.5z M1496.8,170.2
	C1496.7,170.2,1496.8,170.2,1496.8,170.2c0.8-0.8,0-1.3-1.7-1.1c-1.7,0.2-3.8,1.1-4.6,1.9c-0.8,0.8,0,1.3,1.7,1.1
	C1493.8,171.9,1496,171,1496.8,170.2L1496.8,170.2z M1527.5,160C1527.5,160,1527.5,160,1527.5,160c0.9-0.9,0.1-1.5-1.9-1.2
	c-1.9,0.2-4.5,1.3-5.4,2.2c-0.9,0.9-0.1,1.5,1.9,1.2C1524.1,162,1526.6,160.9,1527.5,160L1527.5,160z M1559.3,150
	C1559.4,150,1559.4,150,1559.3,150c1.1-1,0.2-1.6-2-1.4c-2.2,0.3-5.2,1.4-6.3,2.4c-1.1,1-0.2,1.6,2,1.4
	C1555.2,152.2,1558.2,151,1559.3,150L1559.3,150z M1589.8,140.5L1589.8,140.5c1.4-1.1,0.5-1.7-2-1.5c-2.4,0.3-5.6,1.4-6.9,2.5
	c-1.3,1.1-0.4,1.7,2,1.5C1585.4,142.7,1588.5,141.6,1589.8,140.5L1589.8,140.5z M1623.9,130.9L1623.9,130.9c1.6-1.2,0.7-1.9-2-1.6
	c-2.7,0.3-6.3,1.5-7.9,2.7c-1.6,1.2-0.6,1.9,2,1.6C1618.7,133.3,1622.3,132.1,1623.9,130.9L1623.9,130.9z M1658.9,121.5
	L1658.9,121.5c1.9-1.3,1.1-2-1.9-1.7c-3,0.3-6.7,1.5-8.6,2.7c-1.9,1.3-1,2,2,1.7C1653.3,124,1657,122.8,1658.9,121.5L1658.9,121.5z
	 M1695.3,112.4L1695.3,112.4c2.2-1.3,1.4-2.2-1.9-1.9c-3.3,0.3-7.6,1.6-9.8,2.9c-2.2,1.3-1.3,2.2,2,1.9
	C1688.9,115,1693.1,113.8,1695.3,112.4L1695.3,112.4z M1733,103.6L1733,103.6c2.5-1.4,1.7-2.3-1.8-2.1c-3.6,0.3-8.4,1.6-10.9,3.1
	c-2.5,1.4-1.6,2.3,1.9,2.1C1725.7,106.4,1730.5,105,1733,103.6L1733,103.6z M1021.1,339.8c-0.8,0.5-2.3,0.9-3.5,1
	c-1.2,0.1-1.5-0.2-0.7-0.7c0.8-0.5,2.3-0.9,3.5-1C1021.5,339.1,1021.8,339.4,1021.1,339.8L1021.1,339.8L1021.1,339.8z M1056.9,331.2
	c-0.8,0.6-2.3,1-3.7,1.1c-1.4,0.1-1.7-0.2-0.9-0.7c0.8-0.6,2.3-1,3.7-1.1C1057.4,330.3,1057.8,330.6,1056.9,331.2L1056.9,331.2
	L1056.9,331.2z M1092.8,321.3c-0.8,0.6-2.2,1-3.6,1.2c-1.4,0.1-1.7-0.2-1-0.7c0.8-0.6,2.2-1,3.6-1.2
	C1093.2,320.4,1093.6,320.7,1092.8,321.3L1092.8,321.3L1092.8,321.3z M1126.3,312c-0.7,0.6-2.4,1.2-3.8,1.3
	c-1.3,0.1-1.8-0.2-1.1-0.8c0.7-0.6,2.4-1.2,3.8-1.3C1126.5,311.1,1127,311.5,1126.3,312C1126.3,312,1126.3,312,1126.3,312
	L1126.3,312z M1158.8,302.6c-0.8,0.7-2.4,1.3-4,1.5c-1.5,0.2-2.1-0.2-1.3-0.9c0.8-0.7,2.4-1.3,3.9-1.5
	C1159,301.5,1159.6,301.9,1158.8,302.6L1158.8,302.6L1158.8,302.6z M1190.2,292.9L1190.2,292.9c0.7-0.7,0-1.1-1.5-0.9
	c-1.5,0.2-3.4,0.9-4.1,1.6c-0.7,0.7,0,1.1,1.5,0.9C1187.6,294.3,1189.5,293.5,1190.2,292.9L1190.2,292.9z M1220.7,283
	C1220.7,283,1220.7,283,1220.7,283c0.8-0.8,0.1-1.2-1.6-1c-1.7,0.2-3.5,1-4.3,1.8c-0.8,0.8-0.1,1.2,1.6,1
	C1218.1,284.5,1219.9,283.8,1220.7,283L1220.7,283z M1250.3,272.9L1250.3,272.9c0.7-0.8-0.1-1.3-1.8-1.1c-1.7,0.2-3.7,1.1-4.4,1.9
	c-0.7,0.8,0.1,1.3,1.8,1.1C1247.5,274.6,1249.6,273.7,1250.3,272.9L1250.3,272.9z M1279.4,262.7L1279.4,262.7
	c0.7-0.9-0.2-1.5-2.1-1.2c-1.8,0.3-4.2,1.3-4.9,2.2c-0.7,0.9,0.2,1.5,2.1,1.2C1276.4,264.6,1278.7,263.6,1279.4,262.7L1279.4,262.7z
	 M1305.5,252.7L1305.5,252.7c0.7-0.9-0.3-1.5-2.1-1.2c-1.8,0.3-4.1,1.3-4.8,2.2c-0.7,0.9,0.3,1.5,2.1,1.2
	C1302.5,254.6,1304.8,253.6,1305.5,252.7L1305.5,252.7z M1333.6,242.3L1333.6,242.3c0.8-1-0.4-1.6-2.4-1.3c-2,0.3-4.5,1.5-5.3,2.5
	c-0.8,1,0.4,1.6,2.4,1.3C1330.3,244.5,1332.9,243.3,1333.6,242.3L1333.6,242.3z M1361.5,231.8L1361.5,231.8c0.9-1.2-0.2-1.8-2.7-1.5
	c-2.4,0.4-4.9,1.6-5.8,2.8c-0.9,1.2,0.2,1.8,2.7,1.5C1358.1,234.2,1360.6,233,1361.5,231.8L1361.5,231.8z M1389.3,221.3
	L1389.3,221.3c1-1.3-0.3-2-2.9-1.6c-2.6,0.4-5.4,1.7-6.4,3c-1,1.3,0.3,2,2.9,1.6C1385.5,223.9,1388.3,222.6,1389.3,221.3
	L1389.3,221.3z M1417,210.8L1417,210.8c1-1.3-0.4-2.1-3-1.7c-2.6,0.4-5.7,1.8-6.7,3.2c-1,1.3,0.4,2.1,3,1.7
	C1412.9,213.6,1416,212.2,1417,210.8L1417,210.8z M1445.8,199.4L1445.8,199.4c1.1-1.4-0.2-2.2-3.1-1.8c-2.9,0.4-6,1.9-7.1,3.3
	c-1.1,1.4,0.2,2.2,3.1,1.8C1441.6,202.3,1444.7,200.8,1445.8,199.4L1445.8,199.4z M1474.6,189.1L1474.6,189.1
	c1.3-1.5-0.2-2.4-3.3-1.9c-3.1,0.4-6.6,2-7.9,3.5c-1.3,1.5,0.2,2.4,3.3,1.9C1469.8,192.1,1473.3,190.6,1474.6,189.1L1474.6,189.1z
	 M1504.2,178.8L1504.2,178.8c1.6-1.7,0-2.6-3.5-2.1c-3.6,0.5-7.5,2.2-9,3.9c-1.5,1.7,0,2.6,3.6,2.1
	C1498.8,182.1,1502.7,180.5,1504.2,178.8L1504.2,178.8z M1534.5,168.6L1534.5,168.6c1.8-1.8,0.2-2.8-3.6-2.3
	c-3.8,0.5-8.2,2.3-9.9,4.1c-1.7,1.8-0.1,2.8,3.7,2.3C1528.4,172.2,1532.7,170.4,1534.5,168.6L1534.5,168.6z M1565.8,158.6
	L1565.8,158.6c2-1.9,0.3-3-3.8-2.5c-4.1,0.5-9.3,2.5-11.3,4.4c-2,1.9-0.2,3,3.9,2.5C1558.7,162.5,1563.8,160.5,1565.8,158.6
	L1565.8,158.6z M1595.6,149.1L1595.6,149.1c2.3-2,0.7-3.1-3.7-2.6c-4.4,0.5-9.8,2.5-12.1,4.5c-2.3,2-0.6,3.1,3.8,2.6
	C1588,153.1,1593.3,151.1,1595.6,149.1L1595.6,149.1z M1629.1,139.5L1629.1,139.5c2.6-2,0.9-3.4-3.8-2.9c-4.7,0.5-11,2.7-13.6,4.7
	c-2.6,2.1-0.8,3.4,3.9,2.9C1620.2,143.8,1626.4,141.6,1629.1,139.5L1629.1,139.5z M1663.5,130.2L1663.5,130.2c3.1-2.2,1.6-3.6-3.7-3
	c-5.2,0.5-11.8,2.7-14.9,4.9c-3.1,2.2-1.4,3.6,3.8,3C1653.9,134.6,1660.3,132.4,1663.5,130.2L1663.5,130.2z M1699.3,121.1
	L1699.3,121.1c3.5-2.3,2-3.8-3.6-3.3c-5.6,0.5-13.2,2.8-16.6,5.1c-3.5,2.3-1.7,3.8,3.8,3.3C1688.3,125.7,1695.7,123.4,1699.3,121.1
	L1699.3,121.1z M988.1,356.8c-2,1.1-6.2,2.2-9,2.4c-2.9,0.2-3.5-0.6-1.4-1.7c2.1-1.1,6.1-2.2,9-2.4
	C989.5,354.9,990.2,355.7,988.1,356.8C988.1,356.8,988.1,356.8,988.1,356.8L988.1,356.8z M1024.7,347.6c-1.9,1.1-5.5,2.1-8.3,2.3
	c-2.8,0.2-3.5-0.5-1.6-1.6c1.9-1.1,5.5-2.1,8.3-2.3C1025.9,345.9,1026.6,346.5,1024.7,347.6L1024.7,347.6L1024.7,347.6z
	 M1061.4,338.9c-1.8,1.1-5.6,2.3-8.4,2.5c-2.8,0.2-3.6-0.5-1.8-1.6c1.8-1.1,5.6-2.3,8.4-2.5C1062.3,337.1,1063.2,337.8,1061.4,338.9
	L1061.4,338.9L1061.4,338.9z M1096.9,329.9c-1.8,1.2-5.5,2.4-8.5,2.7c-3,0.3-3.8-0.5-2-1.7c1.8-1.2,5.5-2.4,8.4-2.7
	C1097.8,328,1098.7,328.7,1096.9,329.9L1096.9,329.9L1096.9,329.9z M1131.2,320.7c-1.7,1.3-5.6,2.6-8.5,2.9c-2.9,0.3-4-0.5-2.3-1.8
	c1.7-1.3,5.5-2.6,8.4-2.9C1131.8,318.6,1132.9,319.4,1131.2,320.7L1131.2,320.7L1131.2,320.7z M1164.4,311.2
	c-1.6,1.4-5.4,2.7-8.5,3.1c-3.1,0.3-4.2-0.5-2.5-1.8c1.7-1.4,5.4-2.7,8.4-3.1C1164.9,309,1166.1,309.8,1164.4,311.2L1164.4,311.2
	L1164.4,311.2z M1196.5,301.4L1196.5,301.4c1.5-1.4,0.2-2.2-2.8-1.9c-3,0.4-6.9,1.9-8.4,3.2c-1.5,1.4-0.3,2.2,2.8,1.9
	C1191.1,304.3,1195,302.8,1196.5,301.4L1196.5,301.4z M1227.8,291.5L1227.8,291.5c1.5-1.5,0-2.4-3.2-2c-3.2,0.4-7.2,2.1-8.8,3.5
	c-1.5,1.5-0.1,2.4,3.1,2C1222.2,294.6,1226.3,293,1227.8,291.5L1227.8,291.5z M1258.1,281.4C1258.1,281.4,1258.1,281.4,1258.1,281.4
	c1.6-1.7,0-2.6-3.5-2.1c-3.5,0.5-7.5,2.1-9.1,3.8c-1.6,1.7-0.1,2.6,3.5,2.1C1252.6,284.8,1256.6,283.1,1258.1,281.4L1258.1,281.4z
	 M1287.6,271.2L1287.6,271.2c1.6-1.8-0.1-2.8-3.9-2.3c-3.7,0.5-7.8,2.3-9.4,4.1c-1.6,1.8,0.1,2.8,3.8,2.3
	C1282,274.8,1286.1,273,1287.6,271.2L1287.6,271.2z M1316.5,260.8L1316.5,260.8c1.5-1.9-0.3-3-4.2-2.4c-3.9,0.6-8.1,2.5-9.7,4.4
	c-1.6,1.9,0.3,3,4.1,2.4C1310.6,264.7,1314.9,262.7,1316.5,260.8L1316.5,260.8z M1342.6,250.7L1342.6,250.7c1.5-1.9-0.5-3-4.4-2.5
	c-3.8,0.6-8.3,2.7-9.8,4.6c-1.5,1.9,0.5,3,4.3,2.5C1336.6,254.7,1341.1,252.6,1342.6,250.7L1342.6,250.7z M1370.5,240.2
	C1370.5,240.2,1370.5,240.2,1370.5,240.2c1.5-2-0.6-3.2-4.7-2.6c-4,0.6-8.7,2.8-10.3,4.9c-1.5,2,0.6,3.2,4.6,2.6
	C1364.3,244.5,1369,242.3,1370.5,240.2L1370.5,240.2z M1398.6,229.7L1398.6,229.7c1.7-2.2-0.6-3.5-5.1-2.8c-4.4,0.7-9.4,3-11,5.3
	c-1.6,2.2,0.6,3.5,5.1,2.8C1391.9,234.3,1396.9,231.9,1398.6,229.7L1398.6,229.7z M1426.9,218.3L1426.9,218.3
	c1.7-2.3-0.5-3.6-5.2-2.9c-4.7,0.7-9.6,3.1-11.4,5.4c-1.7,2.3,0.5,3.6,5.2,2.9C1420.2,222.9,1425.2,220.6,1426.9,218.3L1426.9,218.3
	z M1455.2,207.8L1455.2,207.8c1.9-2.4-0.6-3.8-5.5-3.1c-4.9,0.7-10.5,3.3-12.4,5.8c-1.9,2.4,0.7,3.8,5.5,3.1
	C1447.7,212.8,1453.3,210.2,1455.2,207.8L1455.2,207.8z M1483.7,197.5L1483.7,197.5c2.1-2.5-0.5-4-5.6-3.3c-5.1,0.7-11.2,3.5-13.2,6
	c-2,2.5,0.6,4,5.7,3.3C1475.6,202.7,1481.6,200,1483.7,197.5L1483.7,197.5z M1512.9,187.2L1512.9,187.2c2.4-2.7-0.2-4.3-5.9-3.5
	c-5.6,0.8-12.1,3.6-14.4,6.3c-2.3,2.7,0.4,4.3,5.9,3.5C1504.1,192.7,1510.5,189.9,1512.9,187.2L1512.9,187.2z M1542.7,177.1
	L1542.7,177.1c2.6-2.8,0-4.4-5.9-3.7c-5.9,0.8-12.9,3.7-15.5,6.5c-2.6,2.8,0.2,4.4,6,3.6C1533.1,182.8,1540,179.9,1542.7,177.1
	L1542.7,177.1z M1573.5,167.1L1573.5,167.1c3-3,0.4-4.7-6-3.9c-6.4,0.8-14,3.8-17,6.8c-2.9,3-0.2,4.7,6.2,3.9
	C1563,173.1,1570.4,170.1,1573.5,167.1L1573.5,167.1z M1704.4,129.8L1704.4,129.8c-1.3,0.9-3,1.8-5,2.7c0.9-0.1,1.7-0.2,2.5-0.3
	c1.9-0.2,3.6-0.2,5.1-0.1c2-1.2,4.4-2.3,7.1-3.3c-4,0.2-6.6-0.2-7.4-1.2C1706.5,128.1,1705.7,128.9,1704.4,129.8L1704.4,129.8z
	 M991,364.6c-3.8,2-11,3.8-16.1,4.1c-5.1,0.3-5.9-1-2.1-2.9c3.8-1.9,10.9-3.8,15.9-4.1C993.8,361.4,994.8,362.7,991,364.6
	C991,364.6,991,364.6,991,364.6L991,364.6z M1029.7,356.2c-3.6,2-11,4-16,4.4c-5,0.4-6.1-1-2.5-3c3.6-2,10.9-4,15.8-4.3
	C1032,352.8,1033.3,354.2,1029.7,356.2L1029.7,356.2L1029.7,356.2z M1064.7,347.6c-3.3,2-10.5,4.1-15.4,4.5c-4.9,0.4-6.2-1-2.8-2.9
	c3.4-2,10.4-4,15.3-4.5C1066.6,344.3,1068,345.6,1064.7,347.6L1064.7,347.6L1064.7,347.6z M1101.3,338.6c-3.4,2.2-10.3,4.3-15.6,4.8
	c-5.3,0.5-6.7-0.9-3.3-3.1c3.5-2.2,10.2-4.3,15.4-4.8C1103.2,335,1104.7,336.3,1101.3,338.6L1101.3,338.6L1101.3,338.6z
	 M1136.5,329.3c-3.1,2.2-10.1,4.5-15.4,5.1c-5.2,0.5-6.8-0.9-3.6-3.1c3.2-2.2,10-4.5,15.2-5C1137.9,325.6,1139.6,327,1136.5,329.3
	L1136.5,329.3L1136.5,329.3z M1170.7,319.7c-3,2.4-10.1,4.8-15.5,5.4c-5.4,0.6-7.2-0.9-4.1-3.2c3.1-2.3,10-4.8,15.3-5.4
	C1171.7,315.9,1173.7,317.3,1170.7,319.7L1170.7,319.7L1170.7,319.7z M1203.5,310L1203.5,310c2.9-2.5,0.8-3.9-4.6-3.3
	c-5.4,0.7-12,3.1-15,5.6c-3,2.5-1,3.9,4.5,3.3C1193.9,314.9,1200.7,312.4,1203.5,310L1203.5,310z M1235.4,300L1235.4,300
	c2.8-2.6,0.4-4.1-5.1-3.4c-5.5,0.7-12.2,3.4-15.1,5.9c-2.8,2.6-0.7,4.1,5,3.4C1225.8,305.2,1232.7,302.6,1235.4,300L1235.4,300z
	 M1266.3,289.9L1266.3,289.9c2.6-2.7,0.1-4.3-5.6-3.5c-5.7,0.8-12.4,3.6-15.1,6.3c-2.7,2.7-0.3,4.3,5.4,3.5
	C1256.8,295.4,1263.7,292.6,1266.3,289.9L1266.3,289.9z M1296.3,279.6L1296.3,279.6c2.5-2.8-0.2-4.5-6-3.6
	c-5.8,0.8-12.6,3.8-15.2,6.6c-2.6,2.8,0,4.5,5.9,3.6C1286.8,285.4,1293.8,282.4,1296.3,279.6L1296.3,279.6z M1325.5,269.2
	L1325.5,269.2c2.5-2.9-0.5-4.6-6.4-3.8c-5.9,0.9-12.9,4-15.4,6.9c-2.5,2.9,0.3,4.6,6.3,3.8C1316,275.3,1323.1,272.2,1325.5,269.2
	L1325.5,269.2z M951.1,381.7c-6.3,2.9-17.7,5.5-25.3,5.9c-7.6,0.4-8.3-1.6-1.9-4.4c6.4-2.8,17.4-5.4,24.9-5.9
	C956.3,376.9,957.4,378.8,951.1,381.7L951.1,381.7L951.1,381.7z M991.8,373.5c-6,2.9-17.5,5.8-25,6.2c-7.5,0.5-8.5-1.6-2.5-4.5
	c6.1-2.9,17.2-5.7,24.6-6.2C996.4,368.6,997.8,370.6,991.8,373.5L991.8,373.5L991.8,373.5z M1031.5,365c-5.8,3.1-17,6-24.6,6.5
	c-7.7,0.5-9-1.5-3.1-4.5c5.9-3,16.7-5.9,24.2-6.5C1035.7,359.9,1037.3,361.9,1031.5,365C1031.5,365,1031.5,365,1031.5,365
	L1031.5,365z M1067.7,356.4c-2.4,1.4-6.1,2.8-10,4c-2,0.5-4.1,1-6.1,1.6c-2.9,0.6-5.7,1.1-8.1,1.3c-7.6,0.6-9.2-1.5-3.6-4.5
	c5.5-3,16.3-6.1,23.8-6.8C1071.2,351.2,1073.2,353.3,1067.7,356.4L1067.7,356.4L1067.7,356.4z M1468.8,218.3L1468.8,218.3
	c1.2-1.2,2.9-2.5,4.8-3.6c-3.6,0.4-6.3,0.1-7.6-0.9c0.1,0.7-0.2,1.5-0.9,2.4c-0.7,1-1.8,1.9-3.2,2.9c0.7-0.2,1.5-0.3,2.2-0.4
	C1465.8,218.4,1467.4,218.3,1468.8,218.3L1468.8,218.3z M1496.5,207.8L1496.5,207.8c1.1-1.1,2.6-2.1,4.3-3.2c-2.8,0.3-5,0-6.4-0.6
	c-0.1,0.5-0.4,1.1-1,1.8c-0.7,0.9-1.7,1.7-2.9,2.6c0.5-0.1,1-0.2,1.6-0.3C1493.7,207.9,1495.1,207.8,1496.5,207.8L1496.5,207.8z
	 M1524.6,197.5L1524.6,197.5c1-0.9,2.2-1.7,3.5-2.6c-2.2,0.1-4,0-5.3-0.4c-0.2,0.4-0.4,0.7-0.8,1.1c-0.7,0.8-1.5,1.6-2.6,2.3
	c0.3-0.1,0.6-0.1,1-0.1C1521.9,197.6,1523.3,197.5,1524.6,197.5L1524.6,197.5z M1553.3,187.2
	C1553.3,187.2,1553.3,187.2,1553.3,187.2c0.8-0.7,1.8-1.3,2.9-2c-1.6,0.1-3,0-4.1-0.3c-0.1,0.2-0.3,0.4-0.5,0.6
	c-0.6,0.7-1.4,1.4-2.4,2.1c0.1,0,0.1,0,0.2,0C1550.8,187.4,1552.1,187.3,1553.3,187.2L1553.3,187.2z M1582.8,177.2L1582.8,177.2
	c0.7-0.5,1.4-1,2.2-1.5c-1.2,0-2.2,0-3.1-0.2c0,0,0,0,0,0c-0.6,0.6-1.4,1.2-2.2,1.8C1580.8,177.3,1581.9,177.3,1582.8,177.2
	L1582.8,177.2z M1613.4,167.4c0.5-0.4,1.1-0.7,1.7-1.1c-0.8,0-1.6,0-2.3-0.1c-0.5,0.4-1.1,0.9-1.7,1.3
	C1611.9,167.5,1612.7,167.4,1613.4,167.4L1613.4,167.4z M1644.5,157.9L1644.5,157.9c0.3-0.2,0.6-0.4,0.9-0.6c-0.5,0-1.1,0-1.6,0
	c-0.3,0.2-0.6,0.4-0.9,0.6C1643.5,157.9,1644,157.9,1644.5,157.9L1644.5,157.9z M1306.5,290.2L1306.5,290.2c0.9-0.9,2-1.7,3.3-2.6
	c-1.7,0.1-3.1,0-4.2-0.2c-0.2,0.2-0.4,0.4-0.6,0.7c-0.8,0.9-1.9,1.7-3.2,2.6c0.1,0,0.3,0,0.4-0.1
	C1303.8,290.3,1305.2,290.2,1306.5,290.2L1306.5,290.2z M1337,278.7L1337,278.7c0.9-0.8,2-1.6,3.2-2.3c-1.8,0.1-3.3,0.1-4.5-0.2
	c-0.2,0.5-0.6,1-1,1.5c-0.4,0.4-0.8,0.8-1.3,1.3C1334.7,278.8,1335.9,278.7,1337,278.7L1337,278.7z M1365.2,268.2L1365.2,268.2
	c0.7-0.6,1.5-1.2,2.4-1.9c-1.3,0.1-2.4,0-3.4-0.1c0,0,0,0,0,0c-0.6,0.7-1.4,1.5-2.4,2.2C1363,268.3,1364.2,268.2,1365.2,268.2
	L1365.2,268.2z M1391.6,257.6L1391.6,257.6c0.5-0.4,1-0.8,1.6-1.3c-0.3,0-0.6,0-1,0c-0.4,0.4-0.9,0.9-1.4,1.3
	C1391.2,257.6,1391.4,257.6,1391.6,257.6L1391.6,257.6z M1418.9,247.2L1418.9,247.2c0.4-0.4,0.9-0.7,1.4-1.1c-0.7,0-1.4,0-2,0
	c-0.4,0.4-0.8,0.9-1.3,1.3C1417.6,247.3,1418.3,247.2,1418.9,247.2L1418.9,247.2z M1446.3,236.6L1446.3,236.6
	c0.2-0.2,0.5-0.4,0.7-0.6c-0.4,0-0.8,0-1.2,0c-0.2,0.2-0.5,0.5-0.7,0.7C1445.5,236.7,1445.9,236.6,1446.3,236.6L1446.3,236.6z
	 M1473.8,226.1L1473.8,226.1c0.1-0.1,0.2-0.1,0.2-0.2c-0.2,0-0.3,0-0.5,0c-0.1,0.1-0.2,0.2-0.2,0.2
	C1473.5,226.1,1473.7,226.1,1473.8,226.1L1473.8,226.1z M989,386.2c-1.4-0.3-3.5-0.4-6.4-0.2c-0.8,0-1.6,0.1-2.5,0.2
	c3.7-1.1,7.1-2.3,9.8-3.5c0.7-0.3,1.4-0.7,2-1c1.2,0.6,3.6,0.8,7.3,0.6c0.3,0,0.5,0,0.8-0.1c-3.9,1.2-7.5,2.5-10.4,3.8
	C989.4,386,989.2,386.1,989,386.2L989,386.2L989,386.2z M1030.2,377.4c-1.4-0.3-3.5-0.3-6.1-0.1c-0.5,0-1,0.1-1.5,0.1
	c3.2-1,6.1-2.2,8.5-3.3c0.5-0.3,1-0.5,1.5-0.8c1.3,0.5,3.7,0.6,7.1,0.4c0,0,0,0,0,0C1036,374.8,1032.8,376.1,1030.2,377.4
	L1030.2,377.4L1030.2,377.4z M1070.2,368.3c-1.5-0.2-3.5-0.2-6.1,0c-0.3,0-0.7,0.1-1,0.1c2.8-1,5.4-2.1,7.4-3.2
	c0.1,0,0.1-0.1,0.2-0.1c1.4,0.2,3.2,0.2,5.5,0c0.7-0.1,1.4-0.1,2.2-0.2C1075.4,365.9,1072.6,367.1,1070.2,368.3L1070.2,368.3
	L1070.2,368.3z M1106.8,358.9c-1.1,0-2.5,0-3.9,0.2c-1,0.1-2.1,0.2-3.2,0.4c2.7-1,5-2.1,6.9-3.2c0.1-0.1,0.2-0.1,0.4-0.2
	c1.3,0.3,3.3,0.4,5.7,0.2C1110.5,357.1,1108.5,358,1106.8,358.9L1106.8,358.9L1106.8,358.9z M1143.6,349.7c-1.4-0.1-3.1-0.1-5.2,0.1
	c2.2-0.9,4.1-1.9,5.6-2.8c1.3,0.2,2.9,0.2,5,0.1C1147,347.9,1145.2,348.8,1143.6,349.7L1143.6,349.7L1143.6,349.7z M1179.4,339.9
	c-1.3-0.1-2.8,0-4.5,0.1c1.7-0.8,3.3-1.7,4.6-2.5c1.1,0.1,2.6,0.2,4.2,0.1C1182.1,338.4,1180.6,339.2,1179.4,339.9L1179.4,339.9
	L1179.4,339.9z M1213.9,329.9c-1,0-2.2,0-3.5,0.1c1.3-0.7,2.4-1.3,3.4-2c1,0.1,2.1,0.1,3.4,0C1216,328.7,1214.9,329.3,1213.9,329.9
	C1213.9,329.9,1213.9,329.9,1213.9,329.9L1213.9,329.9z M1247.3,319.7L1247.3,319.7c0.7-0.5,1.5-1,2.3-1.4c-1,0-1.9,0-2.7,0
	c-0.7,0.5-1.5,1-2.4,1.6C1245.5,319.8,1246.4,319.7,1247.3,319.7L1247.3,319.7z M1278.9,309.5L1278.9,309.5c0.5-0.4,0.9-0.7,1.5-1.1
	c-0.5,0-1,0-1.5,0c-0.5,0.4-1.1,0.8-1.8,1.2C1277.7,309.6,1278.3,309.5,1278.9,309.5L1278.9,309.5z M1311.1,298L1311.1,298
	c0.3-0.2,0.6-0.5,1-0.7c-0.3,0-0.7,0-1,0c-0.3,0.2-0.5,0.5-0.8,0.7C1310.5,298,1310.8,298,1311.1,298L1311.1,298z M1574.2,225.1
	L1574.2,225.1c0.1-0.1,0.1-0.2,0.2-0.2c0.1-0.1,0.2-0.2,0.3-0.3c-0.2,0-0.4,0-0.5,0c-0.2,0.2-0.4,0.3-0.6,0.5
	C1573.7,225.1,1573.9,225.1,1574.2,225.1L1574.2,225.1z M1674.6,148.3L1674.6,148.3c-0.2,0.1-0.4,0.3-0.6,0.4c0.3,0,0.7-0.1,1-0.1
	c0.2-0.1,0.3-0.2,0.5-0.3C1675.2,148.3,1674.9,148.3,1674.6,148.3L1674.6,148.3z M1485.6,153.5L1485.6,153.5
	c0.1-0.1,0.1-0.1-0.1-0.1c-0.2,0-0.2,0-0.3,0.1c-0.1,0.1-0.1,0.1,0.1,0.1C1485.5,153.6,1485.5,153.6,1485.6,153.5L1485.6,153.5z
	 M304.4,420.9c-1,0.3-2.6,0.5-3.4,0.4c-0.9-0.1-0.7-0.5,0.3-0.8c1-0.3,2.5-0.5,3.4-0.4C305.6,420.3,305.4,420.6,304.4,420.9
	L304.4,420.9L304.4,420.9z M337.7,418.9c-0.6,0.2-1.4,0.3-2,0.2c-0.5-0.1-0.5-0.2,0.1-0.4c0.6-0.2,1.4-0.3,1.9-0.2
	C338.4,418.6,338.3,418.7,337.7,418.9L337.7,418.9L337.7,418.9z M372.4,416.7c-0.4,0.1-0.8,0.2-1.2,0.1c-0.4,0-0.4-0.1,0.1-0.3
	c0.4-0.1,0.8-0.2,1.2-0.1C372.8,416.4,372.8,416.5,372.4,416.7L372.4,416.7L372.4,416.7z M408.2,414.1c-0.2,0.1-0.6,0.1-0.8,0.1
	c-0.2,0-0.2-0.1,0-0.2c0.2-0.1,0.6-0.1,0.8-0.1C408.5,413.9,408.4,414,408.2,414.1L408.2,414.1z M444.9,411.1
	c-0.2,0.1-0.2,0.1-0.4,0.1c-0.2,0-0.2,0,0-0.1C444.8,411,444.8,411,444.9,411.1C445.2,411,445.2,411,444.9,411.1L444.9,411.1
	L444.9,411.1z M232.6,433.3c-4.1,1.2-10.3,1.7-13.3,1.2c-3-0.6-2.1-2.1,1.9-3.3c4-1.2,10.1-1.7,13.2-1.2
	C237.5,430.5,236.7,432,232.6,433.3L232.6,433.3L232.6,433.3z M263.7,431.8c-3.6,1.1-8.8,1.5-11.5,1.1c-2.7-0.5-2-1.7,1.5-2.7
	c3.5-1,8.7-1.5,11.5-1.1C267.9,429.5,267.3,430.8,263.7,431.8L263.7,431.8L263.7,431.8z M295.9,430.1c-3,0.9-7.2,1.3-9.6,1
	c-2.3-0.4-1.8-1.3,1.1-2.2c3-0.9,7.2-1.3,9.6-1C299.4,428.2,298.9,429.2,295.9,430.1L295.9,430.1L295.9,430.1z M329.4,428
	c-2.4,0.7-6,1.1-7.9,0.8c-1.9-0.3-1.6-1,0.8-1.8c2.4-0.7,5.9-1.1,7.9-0.8C332.1,426.5,331.8,427.3,329.4,428L329.4,428L329.4,428z
	 M363.9,425.7c-1.8,0.5-4.6,0.9-6.1,0.7c-1.5-0.2-1.2-0.8,0.5-1.3c1.8-0.5,4.6-0.8,6.1-0.7C365.9,424.6,365.6,425.2,363.9,425.7
	L363.9,425.7L363.9,425.7z M399.5,423.1c-1.3,0.4-3.4,0.7-4.6,0.5c-1.2-0.1-1-0.5,0.3-1c1.3-0.4,3.4-0.7,4.6-0.5
	C401,422.2,400.8,422.6,399.5,423.1L399.5,423.1L399.5,423.1z M436.2,420.1c-0.9,0.3-2.6,0.5-3.4,0.4c-0.8-0.1-0.7-0.4,0.2-0.7
	c0.9-0.3,2.6-0.5,3.4-0.4C437.2,419.4,437.1,419.8,436.2,420.1L436.2,420.1L436.2,420.1z M474,416.8c-0.7,0.2-2,0.4-2.6,0.3
	c-0.6,0-0.6-0.3,0.1-0.5c0.7-0.2,2-0.4,2.6-0.3C474.7,416.3,474.7,416.5,474,416.8L474,416.8L474,416.8z M512.7,413.1
	c-0.7,0.2-1.6,0.3-2.2,0.3c-0.6,0-0.6-0.2,0.1-0.4c0.7-0.2,1.6-0.3,2.2-0.3C513.4,412.7,513.4,412.9,512.7,413.1L512.7,413.1
	L512.7,413.1z M549.9,408.9c-0.5,0.2-1.3,0.3-1.8,0.3c-0.4,0-0.4-0.2,0-0.3c0.4-0.1,1.3-0.3,1.8-0.3
	C550.3,408.6,550.3,408.8,549.9,408.9L549.9,408.9L549.9,408.9z M589.7,404.5c-0.4,0.2-0.9,0.2-1.3,0.2c-0.5,0-0.5-0.1,0-0.2
	c0.4-0.2,0.9-0.2,1.3-0.2C590.1,404.3,590.1,404.4,589.7,404.5L589.7,404.5L589.7,404.5z M222.2,442.1c-0.4,0.1-0.9,0.2-1.4,0.4
	c-5.8-0.5-11.7-1.1-17.5-1.7c0.9-0.5,2.2-1,3.9-1.4c5.8-1.6,13.7-2.3,18-1.5C229.5,438.6,228.2,440.5,222.2,442.1L222.2,442.1
	L222.2,442.1z M220.1,442.7c-5.7-0.5-11.4-1.1-17.1-1.7c-1.9,1.1-1.7,2.2,1.1,2.7C207.8,444.4,214.4,443.9,220.1,442.7L220.1,442.7z
	 M253.8,440.8c-5.5,1.5-13.4,2.2-17.2,1.6c-3.9-0.7-2.6-2.5,2.7-4c5.3-1.5,13.1-2.2,17.1-1.6C260.4,437.4,259.3,439.2,253.8,440.8
	L253.8,440.8L253.8,440.8z M286.4,439.1c-5.1,1.4-12.1,2.1-15.9,1.5c-3.8-0.6-2.7-2.1,2.3-3.6c5-1.4,11.9-2.1,15.8-1.5
	C292.5,436.1,291.6,437.6,286.4,439.1L286.4,439.1L286.4,439.1z M320.2,437.1c-4.5,1.3-11,1.9-14.4,1.5c-3.4-0.5-2.6-1.8,1.8-3.1
	c4.4-1.3,10.8-1.9,14.3-1.5C325.4,434.4,324.7,435.8,320.2,437.1L320.2,437.1L320.2,437.1z M355,434.7c-3.9,1.1-9.7,1.8-12.7,1.4
	c-3.1-0.4-2.4-1.6,1.4-2.7c3.8-1.1,9.5-1.7,12.7-1.4C359.5,432.4,358.9,433.6,355,434.7L355,434.7L355,434.7z M391,432.1
	c-3.5,1-8.6,1.6-11.4,1.3c-2.8-0.3-2.3-1.3,1.1-2.3c3.4-1,8.5-1.6,11.3-1.3C394.9,430,394.5,431.1,391,432.1L391,432.1L391,432.1z
	 M428,429.1c-3,0.9-7.4,1.4-9.9,1.2c-2.6-0.2-2.2-1.1,0.8-2c3-0.9,7.3-1.4,9.9-1.2C431.3,427.3,431,428.2,428,429.1
	C428,429.1,428,429.1,428,429.1L428,429.1z M466.1,425.7c-2.6,0.8-6.6,1.3-8.8,1.1c-2.3-0.2-2-0.9,0.6-1.7c2.6-0.8,6.5-1.3,8.8-1.1
	C468.9,424.2,468.6,425,466.1,425.7L466.1,425.7L466.1,425.7z M504.9,422c-2.1,0.7-5.7,1.1-7.6,1c-1.9-0.1-1.7-0.8,0.4-1.4
	c2.1-0.7,5.7-1.1,7.6-1C507.2,420.7,507,421.4,504.9,422L504.9,422L504.9,422z M544.4,418c-1.9,0.6-4.6,1-6.3,0.9
	c-1.7-0.1-1.6-0.6,0.2-1.2c1.9-0.6,4.6-1,6.3-0.9C546.4,416.9,546.3,417.4,544.4,418C544.4,418,544.4,418,544.4,418L544.4,418z
	 M193.1,447.7c0.1,0,0.3-0.1,0.4-0.1c6.6-1.8,15.5-2.5,20.2-1.7c3.8,0.7,3.4,2.3-0.7,3.8C206.4,449.1,199.7,448.4,193.1,447.7
	L193.1,447.7z M242,449.5c6.3-1.7,8.1-3.7,4.4-4.6c-1.9-0.2-3.8-0.3-5.6-0.5c-4.9,0-11,0.8-15.8,2.1c-4.6,1.3-6.9,2.7-6.1,3.7
	c3.9,0.4,7.9,0.7,11.8,1.1C234.5,451.1,238.6,450.4,242,449.5L242,449.5L242,449.5z M275.2,447.9c-6.7,1.8-16.1,2.7-20.7,2
	c-4.2-0.7-3.2-2.5,2-4.1c7,0.5,14,1,20.9,1.5C276.8,447.4,276,447.7,275.2,447.9L275.2,447.9z M257.4,445.4c7,0.5,14,1,20.9,1.4
	c3.8-1.5,4-3,0.1-3.5c-4.8-0.7-14.1,0.2-20.5,2C257.8,445.3,257.6,445.4,257.4,445.4L257.4,445.4z M309.5,446L309.5,446
	c6.6-1.8,7.8-3.7,2.9-4.3c-4.9-0.6-13.6,0.3-20,2c-4.9,1.3-6.8,2.8-5.4,3.6c3.7,0.2,7.3,0.4,11,0.6C301.8,447.6,306,446.9,309.5,446
	L309.5,446z M293.9,448.2c-1.8,0-3.4,0-4.7-0.2c-0.3,0-0.5-0.1-0.7-0.1C290.3,448,292.1,448.1,293.9,448.2L293.9,448.2z
	 M344.9,443.7c-6.2,1.7-15,2.6-19.6,2.1c-4.6-0.6-3.3-2.4,2.7-4c6-1.7,14.7-2.6,19.4-2.1C352.2,440.2,351.1,442,344.9,443.7
	L344.9,443.7L344.9,443.7z M381.3,441.1c-5.8,1.6-14,2.5-18.4,2.1c-4.4-0.5-3.4-2.1,2.3-3.7c5.7-1.6,13.7-2.5,18.3-2.1
	C388,437.8,387.1,439.4,381.3,441.1L381.3,441.1L381.3,441.1z M418.9,438.1c-5.4,1.5-13.3,2.5-17.6,2.1c-4.2-0.4-3.3-1.9,1.9-3.4
	c5.3-1.5,13.1-2.4,17.4-2.1C425.1,435,424.3,436.6,418.9,438.1L418.9,438.1L418.9,438.1z M457.5,434.8c-4.9,1.4-12.6,2.4-16.6,2.1
	c-4-0.3-3.3-1.7,1.5-3.1c4.8-1.4,12.3-2.4,16.5-2.1C463.1,431.9,462.4,433.3,457.5,434.8L457.5,434.8L457.5,434.8z M497,431.1
	c-4.7,1.4-11.5,2.3-15.5,2.1c-4-0.2-3.4-1.5,1.2-2.9c4.6-1.4,11.4-2.3,15.4-2.1C502.1,428.4,501.6,429.7,497,431.1L497,431.1
	L497,431.1z M539.1,426.2c-3.9,1.2-9.9,2-13.4,1.9c-3.5-0.2-3.1-1.2,0.8-2.4c3.9-1.2,9.8-2,13.3-1.9
	C543.3,423.9,543,425,539.1,426.2L539.1,426.2L539.1,426.2z M267.2,454.3c-6.5-0.5-13-1-19.5-1.6c6.4-1.2,13.7-1.7,17.8-1.1
	C268.7,452.1,269.1,453.1,267.2,454.3L267.2,454.3z M296.3,454.6L296.3,454.6c7.5-2,9.2-4.1,3.9-4.8c-5.3-0.7-15.3,0.3-22.6,2.2
	c-3.2,0.8-5.4,1.7-6.3,2.5c6.6,0.4,13.2,0.8,19.8,1.2C292.8,455.4,294.6,455.1,296.3,454.6L296.3,454.6z M332.3,452.5L332.3,452.5
	c-7.4,2-18,3.1-23.1,2.4c-5.1-0.6-3.3-2.8,3.8-4.7c1-0.3,2-0.5,3-0.7c7.4,0.4,14.7,0.6,22.1,0.8C337,451,335,451.7,332.3,452.5
	L332.3,452.5z M338.8,449.7c0.8-0.9-0.1-1.6-2.9-2c-4.2-0.5-11.3,0.1-17.7,1.2C325.1,449.3,331.9,449.5,338.8,449.7L338.8,449.7z
	 M369.5,449.9c7.5-2,8.9-4.1,3.3-4.6c-5.6-0.5-15.9,0.6-23.2,2.6c-2.5,0.7-4.4,1.4-5.5,2c7.7,0.2,15.4,0.4,23.1,0.6
	C368,450.3,368.8,450.1,369.5,449.9L369.5,449.9L369.5,449.9z M343.3,450.5c-1,0.9-0.2,1.7,2.8,2c4.2,0.5,11.5-0.1,18-1.4
	C357.2,451,350.2,450.7,343.3,450.5L343.3,450.5z M407.7,447c7.4-2,8.6-4,2.9-4.4c-5.7-0.5-15.7,0.7-22.9,2.7
	c-7.2,2-8.6,3.9-3.1,4.4C390,450.2,400.3,449,407.7,447L407.7,447L407.7,447z M446.9,443.7L446.9,443.7c7.2-2,8.2-3.9,2.5-4.2
	c-5.7-0.4-15.6,0.8-22.5,2.8c-7,2-8.3,3.8-2.7,4.3C429.7,446.9,439.8,445.7,446.9,443.7L446.9,443.7z M489.7,439.3L489.7,439.3
	c6.7-1.9,7.5-3.8,2-4.1c-5.5-0.3-15.5,1-22.1,2.9c-6.5,1.9-7.6,3.7-2.3,4.1C472.7,442.6,483,441.2,489.7,439.3L489.7,439.3z
	 M307.9,456.8c5.3-0.7,10.6-0.9,13.9-0.6c2.1,0.2,3.1,0.7,3.1,1.3C319.2,457.3,313.6,457.1,307.9,456.8L307.9,456.8z M354.9,458.7
	L354.9,458.7c8.1-2.1,9.9-4.3,4.2-4.9c-5.7-0.6-16.9,0.6-24.7,2.7c-1.6,0.4-3,0.9-4.1,1.3c8.2,0.4,16.4,0.7,24.6,0.9L354.9,458.7
	L354.9,458.7z M393.9,455.8c-8.4,2.2-20.3,3.6-26.2,3c-5.9-0.6-3.9-2.8,4.2-5c3.8-1,8.2-1.8,12.5-2.3c5.6,0.1,11.2,0.2,16.8,0.3
	C402.4,452.7,399.8,454.3,393.9,455.8L393.9,455.8L393.9,455.8z M392.2,450.8c2.2-0.1,4.1-0.1,5.7,0.1c0.1,0,0.2,0,0.4,0
	C396.2,450.9,394.2,450.8,392.2,450.8L392.2,450.8z M436.6,451.9c0.3-0.1,0.6-0.2,0.8-0.2c-9.5,0.1-19,0.1-28.5,0.1
	c-3.9,1.6-3.9,3,0.9,3.4C416,455.7,428.1,454.2,436.6,451.9L436.6,451.9L436.6,451.9z M440.6,450.7c-9.7,0.2-19.5,0.2-29.2,0.2
	c0.7-0.2,1.5-0.4,2.3-0.7c8.3-2.2,20.1-3.7,26.5-3.2C445.4,447.3,445.4,448.9,440.6,450.7L440.6,450.7z M477.5,448.3
	c-2.2,0.6-4.7,1.2-7.3,1.6c-7.8,0.2-15.6,0.5-23.4,0.6c-0.3-0.9,2.2-2.3,7.3-3.7c8.1-2.2,20.1-3.8,26.6-3.4
	C487.1,443.8,485.8,446,477.5,448.3L477.5,448.3L477.5,448.3z M461,451.3c-4,0.4-7.8,0.6-10.4,0.4c-0.6,0-1.1-0.1-1.6-0.2
	C453,451.5,457,451.4,461,451.3L461,451.3z M387.3,459.3c-0.6-0.2-1.3-0.3-2.2-0.4c-2.4-0.2-5.5-0.1-9.1,0.1
	C379.8,459.2,383.6,459.2,387.3,459.3L387.3,459.3z M396.2,459.5c9.7,0.1,19.4,0,29.1,0c4.9-1.8,5.1-3.4,0-3.7
	c-6.3-0.5-18.8,1-27.3,3.2C397.4,459.1,396.8,459.3,396.2,459.5L396.2,459.5z M272.4,422.7c-1.6,0.5-4.2,0.8-5.5,0.5
	c-1.3-0.2-1-0.8,0.6-1.3c1.6-0.5,4.2-0.7,5.5-0.5C274.3,421.5,274,422.2,272.4,422.7L272.4,422.7L272.4,422.7z M672.6,393.8
	c-0.2,0.1-0.7,0.2-0.9,0.2c-0.2,0-0.2-0.1,0-0.2c0.2-0.1,0.7-0.2,0.9-0.2C672.8,393.7,672.8,393.7,672.6,393.8L672.6,393.8
	L672.6,393.8z M712.9,388.3c-0.2,0.1-0.2,0.1-0.4,0.1c-0.2,0-0.2,0,0-0.1C712.7,388.2,712.7,388.2,712.9,388.3
	C713.1,388.2,713.1,388.2,712.9,388.3L712.9,388.3L712.9,388.3z M753.4,382.3c-0.2,0.1-0.2,0.1-0.4,0.1c-0.2,0-0.2,0,0-0.1
	C753.1,382.3,753.1,382.3,753.4,382.3C753.6,382.3,753.6,382.3,753.4,382.3L753.4,382.3L753.4,382.3z M793.6,376
	c-0.2,0.1-0.2,0.1-0.4,0.1c-0.2,0-0.2,0,0-0.1C793.3,376,793.3,376,793.6,376C793.8,376,793.8,376,793.6,376L793.6,376L793.6,376z
	 M833.4,369.4c-0.2,0.1-0.2,0.1-0.4,0.1c-0.2,0-0.2,0-0.1-0.1C833.1,369.3,833.1,369.3,833.4,369.4
	C833.6,369.3,833.6,369.3,833.4,369.4C833.4,369.4,833.4,369.4,833.4,369.4L833.4,369.4z M872.6,362.4c-0.2,0.1-0.2,0.1-0.4,0.1
	c-0.2,0-0.2,0-0.1-0.1C872.3,362.3,872.3,362.3,872.6,362.4C872.8,362.3,872.8,362.3,872.6,362.4
	C872.6,362.4,872.6,362.4,872.6,362.4L872.6,362.4z M911.1,355c-0.2,0.1-0.2,0.1-0.4,0.1c-0.2,0-0.2,0-0.1-0.1
	C910.8,354.9,910.8,354.9,911.1,355C911.3,354.9,911.3,354.9,911.1,355L911.1,355L911.1,355z M946.4,347.4c-0.2,0.1-0.2,0.1-0.4,0.1
	c-0.2,0-0.2,0-0.1-0.1C946.1,347.3,946.1,347.3,946.4,347.4C946.6,347.3,946.6,347.3,946.4,347.4
	C946.4,347.4,946.4,347.4,946.4,347.4L946.4,347.4z M983.5,339.4c-0.2,0.1-0.5,0.2-0.8,0.2c-0.2,0-0.3-0.1-0.2-0.2
	c0.2-0.1,0.5-0.2,0.8-0.2C983.6,339.2,983.6,339.3,983.5,339.4L983.5,339.4L983.5,339.4z M584.6,412.7c-1.4,0.5-3.7,0.8-5,0.8
	c-1.3,0-1.3-0.5,0.1-0.9c1.4-0.5,3.6-0.8,5-0.8C586,411.8,586,412.2,584.6,412.7L584.6,412.7L584.6,412.7z M625.4,407.9
	c-1.4,0.5-3.2,0.8-4.6,0.7c-1.4,0-1.4-0.4,0-0.8c1.4-0.5,3.2-0.8,4.6-0.7C626.8,407.1,626.8,407.4,625.4,407.9
	C625.4,407.9,625.4,407.9,625.4,407.9L625.4,407.9z M666.5,402.7c-1.1,0.4-2.9,0.7-4.1,0.7c-1.2,0-1.2-0.3-0.1-0.7
	c1.1-0.4,2.9-0.7,4.1-0.7C667.5,402,667.6,402.3,666.5,402.7L666.5,402.7L666.5,402.7z M707.8,397.2c-1.1,0.4-2.9,0.7-4.1,0.7
	c-1.2,0-1.2-0.3-0.2-0.7c1.1-0.4,2.9-0.7,4.1-0.7C708.9,396.5,708.9,396.8,707.8,397.2L707.8,397.2L707.8,397.2z M749.2,391.2
	c-1.1,0.4-2.9,0.8-4.1,0.8c-1.2,0-1.3-0.3-0.2-0.7c1.1-0.4,2.9-0.8,4.1-0.8C750.1,390.5,750.2,390.8,749.2,391.2L749.2,391.2
	L749.2,391.2z M790,384.9c-0.8,0.3-2.6,0.7-3.6,0.7c-1,0-1.1-0.3-0.3-0.6c0.8-0.3,2.6-0.7,3.6-0.7
	C790.7,384.3,790.8,384.6,790,384.9L790,384.9L790,384.9z M830.7,378.3c-0.8,0.3-2.6,0.7-3.5,0.7c-1,0-1.1-0.3-0.3-0.6
	c0.8-0.3,2.6-0.7,3.5-0.7C831.3,377.6,831.5,377.9,830.7,378.3L830.7,378.3L830.7,378.3z M870.8,371.2c-0.8,0.4-2.5,0.7-3.5,0.8
	c-1,0-1.2-0.3-0.4-0.6c0.8-0.4,2.5-0.7,3.4-0.8C871.3,370.6,871.5,370.9,870.8,371.2L870.8,371.2L870.8,371.2z M910.4,363.8
	c-0.9,0.4-2.6,0.8-3.8,0.9c-1.2,0.1-1.4-0.3-0.5-0.7c0.9-0.4,2.6-0.8,3.8-0.9C911.1,363.1,911.4,363.4,910.4,363.8L910.4,363.8
	L910.4,363.8z M949,356.1c-0.9,0.5-2.5,0.9-3.7,0.9c-1.2,0.1-1.5-0.2-0.6-0.7c0.9-0.5,2.5-0.9,3.7-0.9
	C949.6,355.3,949.9,355.6,949,356.1L949,356.1L949,356.1z M984.4,348.2c-0.8,0.5-2.4,0.9-3.6,1c-1.2,0.1-1.5-0.2-0.7-0.7
	c0.8-0.5,2.4-0.9,3.6-1C984.9,347.4,985.2,347.7,984.4,348.2L984.4,348.2L984.4,348.2z M577.9,421.7c-3.6,1.1-9.3,2-12.6,1.9
	c-3.3-0.1-3.1-1.1,0.5-2.3c3.6-1.1,9.1-2,12.5-1.9C581.7,419.5,581.5,420.5,577.9,421.7L577.9,421.7L577.9,421.7z M619.2,416.9
	c-3.4,1.1-8.5,1.9-11.7,1.8c-3.2-0.1-3-1,0.3-2.1c3.3-1.1,8.4-1.9,11.6-1.8C622.6,414.9,622.5,415.8,619.2,416.9L619.2,416.9
	L619.2,416.9z M660.8,411.7c-3.1,1-7.8,1.8-10.8,1.8c-3,0-3-0.9,0.1-1.9c3.1-1,7.7-1.8,10.7-1.8
	C663.9,409.8,663.9,410.6,660.8,411.7L660.8,411.7L660.8,411.7z M702.8,406.1c-2.8,1-7.5,1.8-10.3,1.8c-2.8,0-2.9-0.8-0.1-1.8
	c2.8-1,7.4-1.8,10.2-1.8C705.5,404.3,705.5,405.1,702.8,406.1L702.8,406.1L702.8,406.1z M744.7,400.2c-2.7,1-6.9,1.8-9.8,1.8
	c-2.9,0-3-0.7-0.3-1.7c2.7-1,6.8-1.8,9.7-1.8C747.3,398.4,747.4,399.2,744.7,400.2L744.7,400.2z M786.7,393.8
	c-2.6,1-6.8,1.8-9.7,1.9c-2.9,0.1-3.1-0.7-0.5-1.7c2.6-1,6.7-1.8,9.6-1.9C789.1,392.1,789.3,392.8,786.7,393.8L786.7,393.8
	L786.7,393.8z M828.3,387.1c-2.5,1-6.6,1.9-9.5,2c-2.9,0.1-3.2-0.6-0.7-1.7c2.5-1,6.6-1.9,9.5-2
	C830.5,385.4,830.8,386.1,828.3,387.1L828.3,387.1L828.3,387.1z M869.3,380.1c-2.4,1.1-6.4,1.9-9.3,2c-2.9,0.1-3.2-0.6-0.8-1.6
	c2.4-1.1,6.4-1.9,9.3-2C871.4,378.3,871.8,379,869.3,380.1L869.3,380.1L869.3,380.1z M909.7,372.7c-2.3,1.1-6.2,2-9.1,2.1
	c-2.9,0.1-3.3-0.6-1-1.6c2.3-1.1,6.2-2,9.1-2.1C911.5,370.9,912,371.6,909.7,372.7L909.7,372.7L909.7,372.7z M949.3,364.9
	c-2.2,1.1-6,2-8.9,2.2c-2.9,0.2-3.4-0.5-1.2-1.6c2.2-1.1,6-2,8.8-2.2C950.9,363.1,951.4,363.8,949.3,364.9L949.3,364.9L949.3,364.9z
	 M530.6,435.2c-6.4,1.9-16.4,3.2-21.7,3c-5.3-0.3-4.4-2,1.8-3.9c6.3-1.8,16-3.2,21.5-3C537.7,431.6,537,433.4,530.6,435.2
	L530.6,435.2L530.6,435.2z M572.5,430.8c-6.4,1.9-16,3.3-21.5,3.1c-5.5-0.2-4.8-1.9,1.5-3.8c6.3-1.9,15.6-3.3,21.2-3.1
	C579.4,427.2,578.9,428.9,572.5,430.8L572.5,430.8L572.5,430.8z M612.4,425.9c-6,1.9-15.2,3.3-20.6,3.1c-5.4-0.1-4.9-1.7,1.1-3.6
	c6-1.9,14.9-3.2,20.4-3.1C618.7,422.4,618.4,424,612.4,425.9L612.4,425.9L612.4,425.9z M654.8,420.7c-5.7,1.9-14.4,3.2-19.7,3.2
	c-5.3-0.1-5-1.6,0.7-3.4c5.6-1.8,14.2-3.2,19.5-3.2C660.6,417.4,660.5,418.8,654.8,420.7L654.8,420.7L654.8,420.7z M697.6,415.1
	c-5.3,1.8-14.1,3.3-19.2,3.3c-5.2,0-5-1.5,0.3-3.3c5.3-1.8,13.8-3.2,19-3.2C703,411.8,703,413.3,697.6,415.1L697.6,415.1
	L697.6,415.1z M740.5,409.1c-5,1.8-13.6,3.3-18.7,3.3c-5,0-5-1.4,0-3.2c5-1.7,13.4-3.3,18.5-3.3
	C745.3,405.9,745.4,407.4,740.5,409.1L740.5,409.1L740.5,409.1z M783.4,402.8c-4.8,1.8-13.4,3.4-18.5,3.5c-5.1,0.1-5.2-1.4-0.4-3.1
	c4.8-1.8,13.2-3.4,18.3-3.5C787.9,399.5,788.2,401,783.4,402.8L783.4,402.8L783.4,402.8z M825.7,396.1c-4.7,1.8-12.7,3.4-17.8,3.6
	c-5.1,0.1-5.4-1.2-0.7-3c4.7-1.8,12.5-3.4,17.6-3.5C829.9,392.9,830.3,394.2,825.7,396.1L825.7,396.1L825.7,396.1z M867.7,389
	c-4.5,1.9-12.3,3.5-17.5,3.7c-5.1,0.2-5.5-1.2-1.1-3c4.5-1.8,12.2-3.5,17.3-3.7C871.6,385.8,872.2,387.1,867.7,389L867.7,389
	L867.7,389z M909.1,381.5c-4.3,1.9-12,3.6-17.1,3.9c-5.1,0.2-5.7-1.1-1.4-3c4.3-1.9,11.8-3.6,16.9-3.8
	C912.6,378.3,913.3,379.6,909.1,381.5L909.1,381.5L909.1,381.5z M949.9,373.7c-4,1.9-12,3.8-17.1,4.1c-5.1,0.3-5.9-1.1-1.8-3
	c4.1-1.9,11.8-3.8,16.9-4.1C953,370.4,953.9,371.8,949.9,373.7L949.9,373.7L949.9,373.7z M519.5,444.3L519.5,444.3
	c-8.3,2.3-20.9,4-27.4,3.7c-6.5-0.3-5-2.6,3.1-4.8c8.1-2.3,20.3-3.9,27-3.7C528.9,439.7,527.7,441.9,519.5,444.3L519.5,444.3z
	 M562,439.8c8.3-2.4,9.2-4.5,2.3-4.7c-6.9-0.2-18.8,1.5-26.9,3.8c-8.1,2.3-9.4,4.5-2.6,4.7C541.4,444,553.7,442.2,562,439.8
	L562,439.8L562,439.8z M605.3,435c8.2-2.5,8.9-4.6,1.8-4.7c-7.1-0.1-19.1,1.7-27.2,4.1c-8,2.4-9.1,4.5-2.2,4.7
	C584.7,439.3,597.1,437.5,605.3,435L605.3,435L605.3,435z M646.4,429.8L646.4,429.8c-7.8,2.4-20.3,4.4-27.1,4.2
	c-6.9-0.1-6-2.2,1.7-4.6c7.7-2.4,19.8-4.3,26.8-4.2C654.8,425.3,654.3,427.3,646.4,429.8L646.4,429.8z M690.4,424.2L690.4,424.2
	c-7.7,2.5-20.1,4.5-27.2,4.5c-7-0.1-6.4-2.1,1.2-4.6c7.6-2.4,19.7-4.5,26.8-4.5C698.3,419.6,698.1,421.7,690.4,424.2L690.4,424.2z
	 M734.1,418.2c-7.5,2.5-19.4,4.6-26.6,4.6c-7.2,0-6.7-2,0.7-4.5c7.5-2.5,19-4.5,26.2-4.6C741.7,413.7,741.6,415.6,734.1,418.2
	L734.1,418.2L734.1,418.2z M778.2,411.8c-7.3,2.6-19.6,4.9-26.9,4.9c-7.2,0.1-7-2,0.2-4.5c7.3-2.5,19.2-4.8,26.5-4.9
	C785.3,407.2,785.5,409.2,778.2,411.8L778.2,411.8L778.2,411.8z M821.8,405.1c-7,2.6-19.2,5-26.5,5.2c-7.3,0.2-7.3-1.9-0.3-4.5
	c7.1-2.6,18.8-4.9,26.1-5.1C828.4,400.4,828.8,402.4,821.8,405.1L821.8,405.1L821.8,405.1z M864.8,397.9c-6.8,2.7-18.8,5.2-26.1,5.4
	c-7.3,0.2-7.6-1.8-0.8-4.4c6.8-2.6,18.4-5.1,25.7-5.4C870.9,393.3,871.6,395.2,864.8,397.9L864.8,397.9L864.8,397.9z M462.6,457.3
	C462.6,457.3,462.6,457.3,462.6,457.3c-2.7,0.7-5.8,1.4-9,1.9c-7.9,0.1-15.7,0.2-23.6,0.3c0.1-1,3-2.4,8.3-3.8
	c8.9-2.4,21.6-4,28.4-3.6C473.5,452.5,471.8,454.8,462.6,457.3L462.6,457.3z M505.3,453.3C505.3,453.3,505.3,453.3,505.3,453.3
	c5.2-1.4,8.1-2.8,8.3-3.7c-9.7,0.4-19.3,0.9-29,1.2c-1.7,0.4-3.4,0.8-5,1.2c-9.2,2.5-11.2,4.8-4.2,5.2
	C482.4,457.6,495.8,455.9,505.3,453.3L505.3,453.3z M493.8,449.1c5.9-0.2,11.8-0.5,17.6-0.8c-0.7-0.1-1.5-0.2-2.4-0.2
	C505.1,447.9,499.6,448.3,493.8,449.1L493.8,449.1z M548.8,449L548.8,449c1.8-0.5,3.4-1,4.6-1.5c-12.1,0.7-24.2,1.4-36.4,2
	c-4.8,1.9-4.8,3.5,1,3.8C525.2,453.5,539.3,451.6,548.8,449L548.8,449z M522,447.8c11.6-0.6,23.2-1.4,34.7-2.2c1-1.1-0.4-1.9-4.5-2
	C544.7,443.4,531.2,445.3,522,447.8L522,447.8z M590.3,444.8c-9.3,2.4-21.8,4.1-28.7,3.9c-3.4-0.1-4.9-0.7-4.7-1.5
	C568.1,446.5,579.2,445.7,590.3,444.8L590.3,444.8z M559.1,445.5c1.4-0.7,3.3-1.4,5.9-2.1c9.2-2.6,23-4.7,30.7-4.5
	c6,0.1,6.6,1.6,2.2,3.5C585,443.5,572,444.6,559.1,445.5L559.1,445.5z M680.2,433.4c-0.6,0.2-1.2,0.4-1.9,0.6
	c-11.7,1.4-23.4,2.8-35.2,4.1c-0.5-0.2-0.7-0.4-0.8-0.7c-0.8,0.4-1.8,0.7-3,1.1c-12.9,1.4-25.8,2.6-38.8,3.8c0.5-1,3.2-2.3,8-3.7
	c9.4-2.8,23.2-4.9,31.4-4.8c3.5,0,5.3,0.5,5.5,1.2c1.2-0.5,2.8-1.1,4.7-1.7c9.3-2.9,23.6-5.2,31.9-5.2
	C690.3,428,689.6,430.4,680.2,433.4L680.2,433.4L680.2,433.4z M625.3,441.8c-7.1,0.7-14.2,1.3-21.4,1.9c0.5,0,1.1,0.1,1.7,0.1
	C610.6,444,618.1,443.2,625.3,441.8L625.3,441.8z M725.1,427.4c-0.7,0.2-1.4,0.4-2.2,0.7c-11.3,1.6-22.5,3.1-33.9,4.6
	c-4-0.7-2-2.8,5.5-5.1c9.1-2.9,23.4-5.4,31.8-5.5C734.7,422,734.3,424.4,725.1,427.4L725.1,427.4L725.1,427.4z M496.5,458
	c-7.2,0.3-14.3,0.5-21.5,0.7c6.7-1.1,13.6-1.7,17.8-1.5C494.8,457.4,496,457.6,496.5,458L496.5,458z M538.4,456.1
	c-11.5,0.6-23,1.2-34.5,1.6c0.8-0.3,1.7-0.5,2.6-0.8c9.4-2.5,22.8-4.3,30-4.1C541.7,453.1,542.2,454.4,538.4,456.1L538.4,456.1z
	 M577.3,453.4L577.3,453.4c-0.3,0.1-0.6,0.2-1,0.3c-11.6,0.8-23.2,1.6-34.9,2.2c1-1,3.9-2.1,8.4-3.4c9.7-2.7,23.7-4.7,31.3-4.5
	C588.8,448.3,587.2,450.7,577.3,453.4L577.3,453.4z M622.7,448.3c-3.4,1-7.4,1.9-11.4,2.6c-8.1,0.7-16.3,1.3-24.4,1.9
	c-3.8-0.8-1.1-2.8,7.1-5.2c9.9-2.8,24-5,32.1-4.8C634.2,443,632.8,445.4,622.7,448.3L622.7,448.3L622.7,448.3z M701.7,441.2
	c-7,0.9-14,1.7-20.9,2.5c7.5-1.5,15.5-2.5,20.6-2.5C701.5,441.2,701.6,441.2,701.7,441.2L701.7,441.2z M632,399
	c-0.2,0.1-0.7,0.2-0.9,0.1c-0.2,0-0.2-0.1,0-0.2c0.2-0.1,0.7-0.2,0.9-0.1C632.2,398.8,632.2,398.9,632,399L632,399z"/>
<path fill-rule="evenodd" fill="#8B4B90" d="M2569.3,285.5v11.6C1928.7,211,1372.5,397.3,815.4,474
	C1372.5,392.7,1928.7,199.4,2569.3,285.5z"/>
<linearGradient id="SVGID_2_" gradientUnits="userSpaceOnUse" x1="42.8634" y1="672.3661" x2="2547.5664" y2="1.233">
	<stop  offset="1.123600e-02" style="stop-color:#D1FF06"/>
	<stop  offset="0.5" style="stop-color:#85A91E"/>
	<stop  offset="1" style="stop-color:#21541B"/>
</linearGradient>
<path fill-rule="evenodd" fill="url(#SVGID_2_)" d="M-4.5,429.5C1000.1,631,1644.7,41.7,2569.3,82.4c0,213.6,0-14.3,0,199.3
	C1618.3,153.8,853.4,641.8-4.5,464.9C-4.5,251.3-4.5,643-4.5,429.5z"/>
<linearGradient id="SVGID_3_" gradientUnits="userSpaceOnUse" x1="1065.0012" y1="514.6351" x2="2562.0735" y2="113.4958">
	<stop  offset="1.123600e-02" style="stop-color:#D1FF06"/>
	<stop  offset="0.5" style="stop-color:#85A91E"/>
	<stop  offset="1" style="stop-color:#21541B"/>
</linearGradient>
<path fill-rule="evenodd" fill="url(#SVGID_3_)" d="M1037,410.2c522.4-114.6,965.5-294.6,1532.3-269.7v83
	C1979.2,152.6,1540.9,312.6,1037,410.2z"/>
<linearGradient id="SVGID_4_" gradientUnits="userSpaceOnUse" x1="8.4341" y1="495.2262" x2="2566.6643" y2="44.1412">
	<stop  offset="1.123600e-02" style="stop-color:#D1FF06"/>
	<stop  offset="0.5" style="stop-color:#85A91E"/>
	<stop  offset="1" style="stop-color:#21541B"/>
</linearGradient>
<path fill-rule="evenodd" fill="url(#SVGID_4_)" d="M-4.5,421.7C1000.1,623.2,1644.7,18.5,2569.3,59.1v15.5
	C1644.7,34,1000.1,623.2-4.5,421.7z"/>
<path fill-rule="evenodd" fill="#816BA0" d="M2569.3,304.9l-0.4,28.9c-640.6-86.1-1196.4,71.4-1753.5,148.1
	C1372.5,400.5,1928.7,218.8,2569.3,304.9z"/>
<g>
	<path fill-rule="evenodd" fill="#729437" d="M853.4,109.6c54.8,16.5,96.7,56.3,117.8,105.5h-0.6c-21-49-62.7-88.5-117.3-104.9
		c-1,2.9-4.1,4.6-7.1,3.8c-3.1-0.8-5-4.1-4.2-7.2c0.8-3.1,4.1-5,7.2-4.2C852.3,103.4,854.1,106.5,853.4,109.6L853.4,109.6z"/>
	<path fill-rule="evenodd" fill="#729437" d="M951.2,77.8c29.2,47.1,70.3,82.7,117.1,105v-1c-46.5-22.3-87.3-57.7-116.3-104.5
		c3.8-2.6,5-7.7,2.7-11.7c-2.4-4.2-7.8-5.7-12-3.2c-4.2,2.4-5.7,7.8-3.2,12C941.8,78.6,947,80,951.2,77.8z"/>
</g>
</svg>
