<?xml version="1.0" encoding="utf-8"?>
<!-- Generator: Adobe Illustrator 18.1.1, SVG Export Plug-In . SVG Version: 6.00 Build 0)  -->
<svg version="1.1" baseProfile="tiny" id="Layer_1" xmlns="http://www.w3.org/2000/svg" xmlns:xlink="http://www.w3.org/1999/xlink"
	 x="0px" y="0px" viewBox="0 0 226.9 24.4" xml:space="preserve">
<g>
	<path fill="#FFFFFF" d="M82.4,8.5V7c0-0.7-0.5-1.2-1.4-1.6C80.3,5.1,79.6,5,78.9,5H63.1c-0.9,0-1.7-0.1-2.6-0.4
		c-1.2-0.3-1.8-0.9-1.8-1.6c0-0.7,0.6-1.3,1.7-1.6C61.3,1.1,62.1,1,63,1h19.6c2.5,0,4.8,0.4,7.1,1.3c3.1,1.2,4.7,3,4.7,5.3v12.6
		c0,1.1-0.8,1.9-2.4,2.5c-1.2,0.4-2.4,0.6-3.6,0.6c-1.2,0-2.4-0.2-3.6-0.6c-1.6-0.5-2.4-1.4-2.4-2.5v-5.8c0-0.7-0.5-1.2-1.4-1.6
		c-0.7-0.3-1.4-0.4-2.1-0.4H70c-0.7,0-1.5,0.1-2.2,0.4c-1,0.4-1.4,0.9-1.4,1.6v2.8c0,0.7,0.5,1.2,1.4,1.6c0.7,0.3,1.4,0.4,2.2,0.4
		h4.4c0.9,0,1.7,0.1,2.6,0.4c1.2,0.4,1.8,0.9,1.8,1.7c0,0.7-0.6,1.2-1.8,1.7c-0.9,0.3-1.8,0.4-2.6,0.4h-8.2c-2.5,0-4.8-0.4-7.1-1.3
		c-3.1-1.2-4.7-3-4.7-5.3V15c0-2.3,1.6-4,4.7-5.3c2.3-0.9,4.7-1.3,7.1-1.3H82.4"/>
	<path fill="#FFFFFF" d="M96.5,7.6c0-3.1,2.6-5.1,7.9-6c2.3-0.4,5.9-0.7,10.6-0.7h12.8c0.9,0,1.8,0.1,2.6,0.4c1.2,0.4,1.8,1,1.8,1.7
		c0,0.7-0.6,1.3-1.8,1.7c-0.9,0.3-1.8,0.4-2.6,0.4h-8.9c-4,0-6.8,0.1-8.1,0.4c-1.8,0.3-2.7,1-2.7,2.1c0,1.2,1.2,2,3.6,2.3
		c0.7,0.1,2.3,0.1,4.6,0.1c4.1,0,7.2,0.2,9.3,0.7c4.4,1,6.6,2.9,6.6,5.9c0,4.5-6.1,6.7-18.4,6.7h-12.9c-0.8,0-1.7-0.1-2.6-0.4
		c-1.2-0.4-1.8-1-1.8-1.7c0-0.7,0.6-1.3,1.8-1.7c0.9-0.3,1.8-0.4,2.6-0.4h9c4.1,0,6.8-0.1,8-0.3c1.8-0.3,2.7-1,2.7-2.1
		c0-1.6-2.4-2.5-7.2-2.5C102.1,14.3,96.5,12.1,96.5,7.6"/>
	<path fill="#FFFFFF" d="M140.2,23.4c-1.2,0-2.4-0.2-3.6-0.6c-1.6-0.5-2.4-1.4-2.4-2.5V4.1c0-1.1,0.8-2,2.4-2.5
		c1.2-0.4,2.4-0.6,3.6-0.6c1.2,0,2.4,0.2,3.6,0.6c1.6,0.5,2.4,1.4,2.4,2.5v16.1c0,1.1-0.8,1.9-2.4,2.5
		C142.6,23.1,141.4,23.4,140.2,23.4"/>
	<path fill="#FFFFFF" d="M188,2.5C188,2.5,188,2.5,188,2.5c-0.5-1-2.3-1.5-5.4-1.5h-28.9c-3.1,0-4.9,0.5-5.4,1.5c0,0,0,0,0,0
		c-0.1,0.1-0.2,0.3-0.2,0.6c0,0.3,0.1,0.6,0.3,0.8c0.3,0.4,0.8,0.7,1.6,0.9c0.7,0.2,1.9,0.2,3.7,0.2h8.5L162,20.3
		c0,1.1,0.8,1.9,2.4,2.5c1.2,0.4,2.4,0.6,3.6,0.6c0,0,0,0,0.1,0c0,0,0,0,0.1,0c1.2,0,2.4-0.2,3.6-0.6c1.6-0.6,2.4-1.4,2.4-2.5
		l-0.1-15.2h8.5c1.8,0,3.1-0.1,3.7-0.2c1.2-0.3,1.8-0.8,1.8-1.7C188.1,2.8,188.1,2.6,188,2.5"/>
	<path fill="#FFFFFF" d="M213.5,8.5V7c0-0.7-0.5-1.2-1.4-1.6c-0.7-0.3-1.4-0.4-2.1-0.4h-15.7c-0.9,0-1.7-0.1-2.6-0.4
		c-1.2-0.3-1.8-0.9-1.8-1.6c0-0.7,0.6-1.3,1.7-1.6c0.8-0.3,1.6-0.4,2.5-0.4h19.6c2.5,0,4.8,0.4,7.1,1.3c3.1,1.2,4.7,3,4.7,5.3v12.6
		c0,1.1-0.8,1.9-2.4,2.5c-1.2,0.4-2.4,0.6-3.6,0.6c-1.2,0-2.4-0.2-3.6-0.6c-1.6-0.5-2.4-1.4-2.4-2.5v-5.8c0-0.7-0.5-1.2-1.4-1.6
		c-0.7-0.3-1.4-0.4-2.1-0.4H201c-0.8,0-1.5,0.1-2.2,0.4c-1,0.4-1.4,0.9-1.4,1.6v2.8c0,0.7,0.5,1.2,1.4,1.6c0.7,0.3,1.4,0.4,2.2,0.4
		h4.4c0.9,0,1.7,0.1,2.6,0.4c1.2,0.4,1.8,0.9,1.8,1.7c0,0.7-0.6,1.2-1.8,1.7c-0.9,0.3-1.8,0.4-2.6,0.4h-8.2c-2.5,0-4.8-0.4-7.1-1.3
		c-3.1-1.2-4.7-3-4.7-5.3V15c0-2.3,1.6-4,4.7-5.3c2.3-0.9,4.7-1.3,7.1-1.3H213.5"/>
	<path fill="#FFFFFF" d="M2.1,18.6l3.5-4.5c0.1-0.1,0.1-0.2,0.2-0.3c0,0,2.5-3.2,4.9-6.3l3.7-4.8C15.2,1.5,16.7,1,19,1
		c0.1,0,0.2,0,0.4,0c0.1,0,0.1,0,0.2,0c2.3,0,3.8,0.5,4.7,1.6l3.1,4l0.1,0.1l3.2-4.2C30.8,2.4,31,2.2,31.3,2c0.9-0.7,2.2-1,4-1
		c0.1,0,0.1,0,0.2,0c0,0,0.1,0,0.1,0c1.2,0,2.1,0.1,2.9,0.4c0.1,0,0.3,0.1,0.4,0.2c0.3,0.1,0.5,0.2,0.7,0.4c0.2,0.2,0.5,0.4,0.6,0.6
		l12.2,16c0.4,0.5,0.5,0.9,0.5,1.4c0,1.3-1,2.3-3,2.9c-1,0.3-2,0.5-3.1,0.5c-2.4,0-3.9-0.5-4.7-1.6l-6.6-9.1L32.9,9L31,11.4l2.8,3.6
		l2.7,3.5c0.4,0.5,0.5,0.9,0.5,1.4c0,1.3-1,2.3-3,2.9c-1,0.3-2,0.5-3.1,0.5c-1.5,0-2.7-0.2-3.5-0.6c-0.5-0.3-0.9-0.6-1.2-1l-5-6.8
		l-1.7-2.4l-7.1,9.2c-0.8,1.1-2.4,1.6-4.7,1.6c-1.3,0-2.5-0.2-3.7-0.7c-1.6-0.6-2.4-1.5-2.4-2.7C1.6,19.5,1.8,19.1,2.1,18.6"/>
</g>
</svg>
